<svg width="700" height="420" viewBox="0 0 700 420" fill="none" xmlns="http://www.w3.org/2000/svg">
<path d="M172.079 223.254C173.479 222.713 174.125 221.793 174.017 220.494C173.909 219.194 173.586 217.949 173.048 216.758C172.833 216.325 172.725 215.946 172.725 215.622C172.725 215.189 172.617 214.756 172.402 214.322C171.002 210.641 169.709 206.906 168.525 203.117C167.34 199.328 165.994 195.538 164.486 191.749C164.271 191.208 164.055 190.558 163.84 189.8C163.624 188.934 163.355 188.176 163.032 187.526C162.709 186.769 162.332 186.119 161.901 185.578C161.47 185.036 160.932 184.766 160.286 184.766C160.07 184.982 159.855 185.145 159.64 185.253C159.424 185.361 159.209 185.524 158.993 185.74C158.132 186.823 157.486 188.122 157.055 189.638C156.732 191.153 156.301 192.615 155.762 194.022C154.47 197.054 153.285 200.14 152.208 203.279C151.239 206.419 150.162 209.559 148.977 212.698C148.547 213.781 148.17 214.864 147.847 215.946C147.523 216.921 147.2 218.004 146.877 219.194C146.554 220.061 146.608 221.035 147.039 222.118C147.577 222.876 148.439 223.309 149.624 223.417C150.916 223.525 152.208 223.579 153.501 223.579H169.009C170.194 223.579 171.217 223.471 172.079 223.254Z" fill="#DBD6C0"/>
<path d="M405.406 193.535C405.622 192.344 405.676 190.883 405.568 189.15C405.568 187.31 405.406 185.794 405.083 184.603C404.437 182.221 403.629 180.327 402.66 178.919C401.691 177.512 400.237 176.213 398.298 175.022C396.683 174.047 394.691 173.344 392.321 172.91C389.952 172.369 387.367 172.044 384.567 171.936C381.874 171.828 379.074 171.828 376.166 171.936H367.928L366.958 172.261H366.151C365.074 172.694 364.374 173.344 364.051 174.21C363.62 175.076 363.404 176.267 363.404 177.782V201.493C363.404 203.009 363.674 204.2 364.212 205.066C364.643 205.715 365.289 206.202 366.151 206.527C367.012 206.852 367.981 207.069 369.058 207.177H372.451C373.743 207.069 374.928 207.014 376.005 207.014C381.713 207.014 386.936 206.744 391.675 206.202C396.414 205.661 400.022 203.766 402.499 200.518C403.145 199.544 403.683 198.516 404.114 197.433C404.545 196.242 404.976 194.943 405.406 193.535Z" fill="#DBD6C0"/>
<path fill-rule="evenodd" clip-rule="evenodd" d="M4.42912 23.2269C0 32.091 0 43.654 0 66.78V353.22C0 376.346 0 387.909 4.42912 396.773C8.49444 404.909 15.0909 411.506 23.2269 415.571C32.091 420 43.654 420 66.78 420H633.22C656.346 420 667.909 420 676.773 415.571C684.909 411.506 691.506 404.909 695.571 396.773C700 387.909 700 376.346 700 353.22V66.78C700 43.654 700 32.091 695.571 23.2269C691.506 15.0909 684.909 8.49444 676.773 4.42912C667.909 0 656.346 0 633.22 0H66.78C43.654 0 32.091 0 23.2269 4.42912C15.0909 8.49444 8.49444 15.0909 4.42912 23.2269ZM63.9369 150.012C84.8303 149.687 99.208 155.913 107.07 168.688C108.147 170.42 108.955 172.207 109.493 174.047C110.139 175.888 110.732 177.891 111.27 180.056C111.486 180.922 111.539 181.951 111.432 183.142C111.432 184.224 111.216 185.036 110.786 185.578C110.247 186.227 109.493 186.66 108.524 186.877C107.555 186.985 106.478 187.039 105.293 187.039H92.2076C91.2383 187.039 90.4306 186.931 89.7844 186.714C88.492 186.173 87.6843 185.307 87.3612 184.116C87.0381 182.925 86.6073 181.734 86.0688 180.543C85.638 179.461 85.0457 178.324 84.2918 177.133C83.5379 175.942 82.7302 175.022 81.8686 174.372C80.3609 173.289 78.9069 172.369 77.5069 171.611C76.2145 171.07 74.599 170.637 72.6605 170.312C70.8296 169.879 68.891 169.608 66.8448 169.5C64.9062 169.392 62.9677 169.446 61.0291 169.662C59.0905 169.879 57.3674 170.312 55.8596 170.962C53.3825 172.044 51.444 173.344 50.0439 174.859C48.7515 176.267 47.8361 178.432 47.2976 181.355C47.0822 182.113 47.0284 182.979 47.1361 183.954C47.2438 184.82 47.4053 185.524 47.6207 186.065C48.4823 188.338 49.667 189.962 51.1747 190.937C52.7902 191.803 54.6749 192.669 56.8289 193.535C58.0135 194.077 59.1982 194.51 60.3829 194.834C61.6753 195.051 62.9676 195.376 64.26 195.809C67.1679 196.783 70.1296 197.649 73.1451 198.407C76.2683 199.057 79.3377 199.815 82.3533 200.681C82.8917 200.897 83.4302 201.006 83.9687 201.006C84.5072 201.006 85.0457 201.114 85.5842 201.33C87.7382 202.088 89.946 202.792 92.2076 203.442C94.577 204.091 96.6771 205.012 98.5079 206.202C101.416 208.043 103.893 209.884 105.939 211.724C108.093 213.565 110.085 215.946 111.916 218.87C112.455 219.736 112.886 220.71 113.209 221.793L114.501 225.041C114.609 225.366 114.663 225.69 114.663 226.015C114.663 226.232 114.716 226.448 114.824 226.665C115.255 228.397 115.47 230.562 115.47 233.161C115.686 233.702 115.686 234.243 115.47 234.785V237.708C115.348 238.385 115.226 239.044 115.103 239.686C115.948 237.454 116.793 235.171 117.637 232.836C118.499 230.454 119.361 228.126 120.222 225.853C121.084 223.688 121.891 221.576 122.645 219.519C123.399 217.354 124.207 215.189 125.068 213.023C127.546 207.069 129.807 201.06 131.853 194.997C134.007 188.934 136.323 182.925 138.8 176.97C139.015 176.429 139.177 175.942 139.285 175.509C139.392 175.076 139.554 174.589 139.769 174.047C140.631 171.774 141.492 169.446 142.354 167.064C143.216 164.682 144.131 162.354 145.1 160.081C145.639 158.89 146.07 157.699 146.393 156.508C146.823 155.209 147.523 154.18 148.493 153.422C149.031 153.098 149.731 152.827 150.593 152.61C150.808 152.502 151.024 152.502 151.239 152.61C151.454 152.61 151.67 152.556 151.885 152.448H169.655C170.948 152.34 171.971 152.556 172.725 153.098C173.909 153.747 174.663 154.722 174.986 156.021C175.417 157.212 175.902 158.457 176.44 159.756C177.194 161.597 177.894 163.437 178.54 165.278C179.187 167.01 179.887 168.796 180.641 170.637L181.933 174.534C182.795 176.7 183.602 178.865 184.356 181.03C185.11 183.088 185.918 185.199 186.779 187.364C188.933 192.777 190.926 198.245 192.757 203.766C194.695 209.288 196.795 214.756 199.057 220.169C199.272 220.602 199.38 221.035 199.38 221.468C199.488 221.793 199.649 222.172 199.865 222.605L203.742 232.998C204.173 233.865 204.496 234.731 204.711 235.597C204.926 236.355 205.196 237.167 205.519 238.033C206.919 241.497 208.211 244.962 209.396 248.426C210.376 251.293 211.43 254.122 212.557 256.914V158.619C212.557 157.753 212.611 156.941 212.719 156.183C212.827 155.317 212.988 154.668 213.204 154.234C213.634 153.477 214.496 152.935 215.788 152.61C216.004 152.502 216.219 152.502 216.435 152.61C216.65 152.61 216.865 152.556 217.081 152.448H243.413C245.244 152.448 246.644 152.827 247.613 153.585C248.367 154.126 248.905 154.938 249.229 156.021L250.198 158.944C250.844 160.676 251.436 162.463 251.975 164.303C252.621 166.036 253.267 167.822 253.913 169.662C256.39 176.483 258.706 183.412 260.86 190.45C263.122 197.487 265.545 204.47 268.13 211.399C268.991 213.565 269.745 215.784 270.391 218.058C271.037 220.331 271.791 222.551 272.653 224.716L273.299 226.34C273.514 226.881 273.891 227.314 274.43 227.639L275.076 227.964C275.291 228.072 275.507 228.018 275.722 227.802C276.584 227.585 277.176 226.936 277.499 225.853C277.822 224.77 278.145 223.796 278.469 222.93C279.33 220.439 280.084 218.004 280.73 215.622C281.484 213.132 282.292 210.641 283.153 208.151L289.615 188.338L296.077 168.201C296.616 166.469 297.154 164.79 297.693 163.166L299.308 157.97L300.277 155.371C300.6 154.505 301.193 153.801 302.054 153.26C302.701 152.719 303.508 152.448 304.478 152.448H332.264C333.341 152.448 334.148 152.665 334.687 153.098C335.871 153.747 336.464 154.992 336.464 156.833V261.094C336.464 262.285 336.41 263.475 336.302 264.666C336.302 265.749 335.979 266.561 335.333 267.102C334.687 267.644 333.879 267.969 332.91 268.077H317.563C316.701 267.86 315.947 267.698 315.301 267.59C314.763 267.481 314.278 267.102 313.847 266.453C313.416 265.911 313.201 265.208 313.201 264.342V211.562C313.093 210.046 313.04 208.638 313.04 207.339V200.518C313.147 199.544 313.093 198.624 312.878 197.758C312.663 197 312.555 196.188 312.555 195.322C312.555 194.456 312.232 193.914 311.586 193.698C311.263 193.589 310.993 193.644 310.778 193.86C310.67 194.077 310.562 194.239 310.455 194.347C310.024 194.78 309.647 195.322 309.324 195.971L308.678 197.595C308.032 199.219 307.385 200.897 306.739 202.63C306.201 204.362 305.608 206.094 304.962 207.826L304.316 209.775C304.208 210.425 303.993 211.074 303.67 211.724C303.131 213.132 302.647 214.539 302.216 215.946C301.785 217.354 301.3 218.761 300.762 220.169C300.547 220.494 300.439 220.873 300.439 221.306C300.439 221.63 300.331 221.955 300.116 222.28C299.685 223.254 299.308 224.283 298.985 225.366C298.77 226.448 298.393 227.531 297.854 228.614C297.423 229.588 297.046 230.617 296.723 231.699C296.508 232.782 296.185 233.865 295.754 234.947C294.462 238.087 293.331 241.281 292.362 244.529C291.392 247.669 290.315 250.808 289.131 253.948C288.915 254.273 288.807 254.598 288.807 254.922C288.807 255.247 288.7 255.572 288.484 255.897C287.946 257.088 287.515 258.333 287.192 259.632C286.869 260.823 286.438 262.014 285.9 263.205C285.577 263.963 285.253 264.666 284.93 265.316C284.715 265.966 284.338 266.507 283.8 266.94C283.261 267.373 282.723 267.644 282.184 267.752C281.646 267.752 280.999 267.86 280.246 268.077H276.53C275.776 268.077 274.861 268.131 273.784 268.239H270.714C269.745 268.239 268.83 268.185 267.968 268.077C267.106 267.969 266.46 267.752 266.029 267.427C265.168 266.886 264.576 266.29 264.252 265.641C263.929 264.883 263.552 264.017 263.122 263.042C262.583 261.743 262.098 260.444 261.668 259.145C261.345 257.737 260.914 256.384 260.375 255.085L259.891 253.623C259.352 252.324 258.868 250.971 258.437 249.563C258.006 248.047 257.521 246.64 256.983 245.341C256.875 245.016 256.767 244.745 256.66 244.529C256.66 244.204 256.606 243.879 256.498 243.554C255.96 242.58 255.529 241.551 255.206 240.469C254.883 239.386 254.506 238.303 254.075 237.221C253.967 237.004 253.86 236.734 253.752 236.409C253.752 236.084 253.698 235.813 253.59 235.597C253.16 234.514 252.783 233.431 252.459 232.349C252.244 231.266 251.867 230.183 251.329 229.101C250.467 226.936 249.659 224.662 248.905 222.28C248.152 219.898 247.344 217.57 246.482 215.297C245.513 212.59 244.598 209.829 243.736 207.014C242.874 204.2 241.851 201.493 240.667 198.894C240.128 197.379 239.536 196.134 238.89 195.159C238.674 194.943 238.459 194.78 238.243 194.672C238.028 194.456 237.759 194.456 237.436 194.672C236.897 194.997 236.628 195.538 236.628 196.296C236.628 197.054 236.52 197.812 236.305 198.57C236.089 199.328 235.982 200.14 235.982 201.006C236.089 201.764 236.143 202.576 236.143 203.442V207.014C236.143 208.205 236.089 209.396 235.982 210.587V264.342C235.982 265.208 235.766 265.911 235.336 266.453C234.905 267.211 234.097 267.698 232.912 267.914C232.158 268.131 231.351 268.239 230.489 268.239C229.628 268.131 228.766 268.077 227.904 268.077H216.273C215.531 267.994 214.883 267.784 214.331 267.447C214.252 267.498 214.169 267.545 214.081 267.59C213.219 268.131 211.765 268.347 209.719 268.239C207.78 268.131 206.165 268.077 204.873 268.077H197.28C196.418 268.077 195.611 268.131 194.857 268.239C194.211 268.239 193.564 268.131 192.918 267.914C191.733 267.59 190.872 266.94 190.333 265.966C189.795 265.099 189.364 264.179 189.041 263.205C188.826 262.23 188.503 261.256 188.072 260.282C187.533 258.549 186.941 256.817 186.295 255.085C185.756 253.353 185.164 251.674 184.518 250.05C184.195 249.076 183.872 248.21 183.548 247.452C183.333 246.586 183.064 245.828 182.741 245.178C182.418 244.529 181.933 243.987 181.287 243.554C180.641 243.013 179.779 242.634 178.702 242.418H177.087C176.656 242.309 176.171 242.255 175.633 242.255H144.131C142.085 242.147 140.469 242.526 139.285 243.392C138.423 244.042 137.831 244.908 137.508 245.99C137.185 247.073 136.808 248.156 136.377 249.238C135.515 251.079 134.761 253.028 134.115 255.085C133.577 257.034 132.93 258.982 132.177 260.931C131.746 262.014 131.315 263.151 130.884 264.342C130.561 265.533 129.969 266.453 129.107 267.102C128.569 267.535 127.761 267.86 126.684 268.077C125.715 268.185 124.584 268.239 123.291 268.239H119.576C118.284 268.131 117.153 268.077 116.183 268.077C114.783 268.077 113.06 268.131 111.014 268.239C109.075 268.239 107.675 267.969 106.814 267.427C106.275 267.102 105.952 266.615 105.844 265.966C105.844 265.316 105.898 264.666 106.006 264.017C106.221 263.259 106.437 262.555 106.652 261.906C106.868 261.256 107.083 260.715 107.298 260.282C108.235 258.116 109.09 255.909 109.864 253.662C109.691 253.921 109.514 254.179 109.332 254.435C108.901 254.977 108.47 255.464 108.039 255.897C107.608 256.222 107.231 256.655 106.908 257.196C106.37 257.846 105.778 258.495 105.131 259.145C104.485 259.686 103.785 260.227 103.031 260.769C102.493 261.202 101.9 261.635 101.254 262.068C100.716 262.501 100.123 262.934 99.4772 263.367C97.6464 264.558 95.7078 265.533 93.6615 266.29C91.723 267.048 89.6767 267.806 87.5228 268.564C86.015 269.105 84.4534 269.43 82.8379 269.538C81.2224 269.755 79.607 270.026 77.9915 270.35C77.2376 270.567 76.4837 270.621 75.7298 270.513C75.0837 270.513 74.4375 270.621 73.7913 270.838H72.4989C72.2835 270.838 71.9604 270.783 71.5296 270.675C71.2065 270.675 70.9373 270.729 70.7219 270.838C70.1834 270.946 69.268 271 67.9756 271C66.6832 271 65.7678 270.946 65.2293 270.838H63.6138C62.86 270.621 62.0522 270.513 61.1906 270.513C60.4367 270.621 59.7367 270.567 59.0905 270.35C58.552 270.35 58.0674 270.296 57.6366 270.188C57.2058 270.188 56.7212 270.134 56.1827 270.026C54.8903 269.701 53.5441 269.43 52.144 269.214C50.7439 268.997 49.4516 268.672 48.2669 268.239C42.9897 266.507 38.3587 264.342 34.3739 261.743C30.389 259.037 27.0504 255.518 24.358 251.187C22.6348 248.589 21.2886 245.503 20.3193 241.93C20.1039 241.281 19.9424 240.631 19.8347 239.982C19.8347 239.332 19.727 238.628 19.5116 237.87C19.2962 237.004 19.1346 235.976 19.0269 234.785C18.9192 233.486 19.1346 232.511 19.6731 231.862C20.2116 230.995 20.9655 230.508 21.9348 230.4C23.0117 230.183 24.1964 230.075 25.4888 230.075H38.4125C39.3818 230.075 40.2434 230.238 40.9973 230.562C42.182 231.104 42.882 232.024 43.0974 233.323C43.3128 234.514 43.6897 235.759 44.2282 237.058C44.659 238.358 45.1975 239.549 45.8437 240.631C46.4899 241.714 47.1899 242.742 47.9438 243.717C48.4823 244.366 49.0746 244.962 49.7208 245.503C50.367 246.045 51.0132 246.532 51.6594 246.965C54.0287 248.481 56.9366 249.726 60.3829 250.7C61.1368 250.917 61.8368 251.025 62.483 251.025C63.2369 251.025 64.0446 251.133 64.9062 251.35H65.7139C66.5755 251.566 67.7602 251.674 69.268 251.674C70.7757 251.674 71.9604 251.566 72.822 251.35C73.1451 251.241 73.6836 251.187 74.4375 251.187C74.976 251.079 75.5145 251.025 76.0529 251.025C76.6991 250.917 77.2915 250.754 77.8299 250.538C81.4917 249.563 84.3995 248.264 86.5535 246.64C88.7074 245.016 90.2152 242.309 91.0768 238.52C91.2922 237.762 91.2922 236.896 91.0768 235.922C90.9691 234.947 90.8075 234.189 90.5921 233.648C89.5152 230.725 87.6843 228.451 85.0996 226.827C84.7765 226.611 84.1841 226.286 83.3225 225.853C81.7071 224.878 79.8762 224.121 77.8299 223.579L72.0143 221.63C71.2604 221.414 70.5065 221.251 69.7526 221.143C69.1064 220.927 68.3525 220.71 67.491 220.494C65.7678 219.952 63.9908 219.519 62.1599 219.194C60.4367 218.761 58.7674 218.274 57.152 217.733C56.6135 217.516 56.1827 217.408 55.8596 217.408C55.5365 217.408 55.1596 217.3 54.7288 217.083C53.8672 216.867 53.0594 216.65 52.3056 216.434C51.6594 216.217 50.9055 216.001 50.0439 215.784C47.5669 214.918 45.1975 214.052 42.9358 213.186C40.6742 212.211 38.5741 211.129 36.6355 209.938C34.1585 208.314 31.8968 206.419 29.8506 204.254C27.8043 202.088 26.1888 199.598 25.0042 196.783C24.5734 195.809 24.2503 194.834 24.0349 193.86C23.8195 192.777 23.5502 191.641 23.2271 190.45C23.0117 189.475 22.8502 188.068 22.7425 186.227C22.6348 184.387 22.6887 182.871 22.904 181.68C23.0117 181.247 23.0656 180.597 23.0656 179.731C23.3887 178.54 23.6579 177.404 23.8733 176.321C24.0887 175.238 24.4118 174.156 24.8426 173.073C26.4581 169.284 28.5043 166.09 30.9814 163.491C33.5661 160.785 36.5278 158.349 39.8665 156.183C42.0204 154.884 44.3359 153.856 46.813 153.098C49.29 152.34 51.9286 151.636 54.7288 150.986C55.8057 150.77 56.8289 150.662 57.7981 150.662C58.8751 150.553 59.9521 150.391 61.0291 150.174C61.3522 150.066 61.8368 150.066 62.483 150.174C63.2369 150.283 63.7215 150.229 63.9369 150.012ZM423.177 166.902C425.654 170.366 427.431 174.21 428.508 178.432C429.692 182.654 430.123 187.743 429.8 193.698C429.585 196.08 429.208 198.299 428.669 200.356C428.131 202.305 427.485 204.145 426.731 205.878L426.084 207.177C425.977 207.502 425.815 207.881 425.6 208.314L424.307 210.587C423.984 211.237 423.554 211.886 423.015 212.536C420.861 215.568 418.223 218.058 415.099 220.006C412.084 221.847 408.637 223.417 404.76 224.716C403.576 225.149 402.337 225.42 401.045 225.528C399.752 225.636 398.46 225.853 397.168 226.178C396.521 226.286 395.875 226.34 395.229 226.34C394.583 226.34 393.937 226.394 393.29 226.502H368.574C367.066 226.502 365.881 226.827 365.02 227.477C363.943 228.235 363.404 229.588 363.404 231.537V262.718C363.512 264.233 363.297 265.424 362.758 266.29C362.327 267.048 361.358 267.644 359.85 268.077C359.096 268.293 358.289 268.347 357.427 268.239C356.565 268.131 355.704 268.077 354.842 268.077H342.08C341.111 267.969 340.303 267.644 339.657 267.102C339.011 266.561 338.634 265.749 338.526 264.666C338.418 263.475 338.365 262.285 338.365 261.094V163.978C338.365 162.463 338.311 160.676 338.203 158.619C338.203 156.562 338.472 155.101 339.011 154.234C339.442 153.585 340.249 153.044 341.434 152.61C341.649 152.502 341.865 152.502 342.08 152.61C342.403 152.61 342.672 152.556 342.888 152.448H392.483C393.452 152.34 394.367 152.394 395.229 152.61H396.037C396.575 152.827 397.168 152.935 397.814 152.935C398.46 152.935 399.052 153.044 399.591 153.26C400.129 153.368 400.614 153.422 401.045 153.422C401.475 153.422 401.96 153.531 402.499 153.747L407.668 155.371C409.391 155.804 411.007 156.454 412.515 157.32C413.053 157.753 413.645 158.132 414.292 158.457C414.938 158.782 415.584 159.215 416.23 159.756C416.769 160.081 417.199 160.46 417.522 160.893C417.953 161.218 418.438 161.597 418.976 162.03L419.946 163.004C421.238 164.303 422.315 165.602 423.177 166.902ZM449.831 152.448H436.099C435.884 152.556 435.668 152.61 435.453 152.61C435.237 152.502 435.022 152.502 434.807 152.61C433.514 152.935 432.653 153.477 432.222 154.234C431.899 154.776 431.683 155.534 431.576 156.508V263.854C431.576 264.829 431.791 265.641 432.222 266.29C432.76 267.157 433.568 267.698 434.645 267.914C435.83 268.023 437.176 268.077 438.684 268.077H489.43C490.507 268.077 491.315 267.86 491.854 267.427C492.5 267.102 493.038 266.507 493.469 265.641C493.685 265.099 493.738 264.45 493.631 263.692V250.7C493.631 249.726 493.361 248.914 492.823 248.264C492.5 247.831 491.8 247.506 490.723 247.29C489.754 247.073 488.677 246.965 487.492 246.965C486.307 246.857 485.069 246.857 483.776 246.965H461.785C459.523 246.965 458.016 246.261 457.262 244.854C457.046 244.312 456.885 243.717 456.777 243.067V239.17C456.562 238.412 456.454 237.654 456.454 236.896C456.562 236.03 456.615 235.164 456.615 234.298V156.833C456.615 155.534 456.346 154.505 455.808 153.747C455.269 152.989 454.408 152.61 453.223 152.61C452.146 152.502 451.015 152.448 449.831 152.448ZM505.49 152.448H579.963C581.255 152.448 582.493 152.502 583.678 152.61C584.863 152.719 585.724 153.152 586.263 153.91C586.478 154.234 586.586 154.613 586.586 155.046C586.694 155.48 586.855 155.913 587.071 156.346V158.132C587.178 158.89 587.178 159.702 587.071 160.568V165.602C587.178 166.36 587.178 167.118 587.071 167.876C586.963 168.417 586.909 169.229 586.909 170.312C586.586 171.611 586.048 172.477 585.294 172.91C584.647 173.344 583.84 173.56 582.87 173.56H536.345C535.268 173.452 534.137 173.452 532.952 173.56C531.875 173.56 530.852 173.668 529.883 173.885C528.914 173.993 528.214 174.21 527.783 174.534C527.029 175.076 526.544 175.888 526.329 176.97C526.221 177.945 526.168 179.082 526.168 180.381V194.347C526.383 195.213 526.598 195.971 526.814 196.621C527.029 197.162 527.406 197.595 527.945 197.92C528.591 198.353 529.345 198.624 530.206 198.732H572.208C573.393 198.624 574.524 198.624 575.601 198.732C576.678 198.732 577.647 198.786 578.509 198.894C579.478 199.003 580.178 199.219 580.609 199.544C581.147 199.869 581.524 200.518 581.74 201.493C581.955 202.467 582.063 203.55 582.063 204.741C582.17 205.824 582.17 206.96 582.063 208.151V213.51C582.063 214.268 581.955 214.918 581.74 215.459C581.524 216.325 581.093 217.029 580.447 217.57C579.909 217.895 579.155 218.112 578.186 218.22C577.324 218.328 576.301 218.382 575.116 218.382H571.724C570.647 218.274 569.731 218.22 568.977 218.22H533.76C532.576 218.112 531.445 218.166 530.368 218.382C529.398 218.491 528.537 218.816 527.783 219.357C527.137 219.79 526.652 220.494 526.329 221.468C526.221 222.009 526.168 222.605 526.168 223.254V240.144C526.168 241.443 526.221 242.634 526.329 243.717C526.544 244.691 527.029 245.449 527.783 245.99C528.106 246.315 528.483 246.532 528.914 246.64C529.452 246.64 529.991 246.748 530.529 246.965H532.145C532.683 247.073 533.276 247.127 533.922 247.127C534.568 247.019 535.16 246.965 535.699 246.965H583.84C584.701 246.965 585.455 247.127 586.101 247.452C586.963 247.777 587.555 248.372 587.878 249.238C588.094 249.78 588.201 250.429 588.201 251.187C588.309 251.945 588.363 252.757 588.363 253.623V261.094C588.363 262.393 588.309 263.638 588.201 264.829C588.094 265.911 587.609 266.723 586.748 267.265C586.101 267.806 585.24 268.077 584.163 268.077H508.236C506.728 268.077 505.382 268.023 504.197 267.914C503.12 267.698 502.312 267.157 501.774 266.29C501.343 265.641 501.128 264.829 501.128 263.854V156.508C501.128 155.534 501.343 154.776 501.774 154.234C502.205 153.477 503.012 152.935 504.197 152.61C504.413 152.502 504.628 152.502 504.843 152.61C505.059 152.61 505.274 152.556 505.49 152.448ZM672.438 168.688C664.576 155.913 650.198 149.687 629.305 150.012C629.09 150.229 628.605 150.283 627.851 150.174C627.205 150.066 626.72 150.066 626.397 150.174C625.32 150.391 624.243 150.553 623.166 150.662C622.197 150.662 621.174 150.77 620.097 150.986C617.297 151.636 614.658 152.34 612.181 153.098C609.704 153.856 607.388 154.884 605.235 156.183C601.896 158.349 598.934 160.785 596.349 163.491C593.872 166.09 591.826 169.284 590.211 173.073C589.78 174.156 589.457 175.238 589.241 176.321C589.026 177.404 588.757 178.54 588.434 179.731C588.434 180.597 588.38 181.247 588.272 181.68C588.057 182.871 588.003 184.387 588.111 186.227C588.218 188.068 588.38 189.475 588.595 190.45C588.918 191.641 589.188 192.777 589.403 193.86C589.618 194.834 589.941 195.809 590.372 196.783C591.557 199.598 593.172 202.088 595.219 204.254C597.265 206.419 599.527 208.314 602.004 209.938C603.942 211.129 606.042 212.211 608.304 213.186C610.566 214.052 612.935 214.918 615.412 215.784C616.274 216.001 617.028 216.217 617.674 216.434C618.428 216.65 619.235 216.867 620.097 217.083C620.528 217.3 620.905 217.408 621.228 217.408C621.551 217.408 621.982 217.516 622.52 217.733C624.136 218.274 625.805 218.761 627.528 219.194C629.359 219.519 631.136 219.952 632.859 220.494C633.721 220.71 634.475 220.927 635.121 221.143C635.875 221.251 636.629 221.414 637.382 221.63L643.198 223.579C645.244 224.121 647.075 224.878 648.691 225.853C649.552 226.286 650.145 226.611 650.468 226.827C653.052 228.451 654.883 230.725 655.96 233.648C656.176 234.189 656.337 234.947 656.445 235.922C656.66 236.896 656.66 237.762 656.445 238.52C655.583 242.309 654.076 245.016 651.922 246.64C649.768 248.264 646.86 249.563 643.198 250.538C642.66 250.754 642.067 250.917 641.421 251.025C640.883 251.025 640.344 251.079 639.806 251.187C639.052 251.187 638.513 251.241 638.19 251.35C637.329 251.566 636.144 251.674 634.636 251.674C633.128 251.674 631.944 251.566 631.082 251.35H630.274C629.413 251.133 628.605 251.025 627.851 251.025C627.205 251.025 626.505 250.917 625.751 250.7C622.305 249.726 619.397 248.481 617.028 246.965C616.381 246.532 615.735 246.045 615.089 245.503C614.443 244.962 613.85 244.366 613.312 243.717C612.558 242.742 611.858 241.714 611.212 240.631C610.566 239.549 610.027 238.358 609.596 237.058C609.058 235.759 608.681 234.514 608.466 233.323C608.25 232.024 607.55 231.104 606.365 230.562C605.612 230.238 604.75 230.075 603.781 230.075H590.857C589.565 230.075 588.38 230.183 587.303 230.4C586.334 230.508 585.58 230.995 585.041 231.862C584.503 232.511 584.287 233.486 584.395 234.785C584.503 235.976 584.664 237.004 584.88 237.87C585.095 238.628 585.203 239.332 585.203 239.982C585.31 240.631 585.472 241.281 585.687 241.93C586.657 245.503 588.003 248.589 589.726 251.187C592.419 255.518 595.757 259.037 599.742 261.743C603.727 264.342 608.358 266.507 613.635 268.239C614.82 268.672 616.112 268.997 617.512 269.214C618.912 269.43 620.258 269.701 621.551 270.026C622.089 270.134 622.574 270.188 623.005 270.188C623.436 270.296 623.92 270.35 624.459 270.35C625.105 270.567 625.805 270.621 626.559 270.513C627.42 270.513 628.228 270.621 628.982 270.838H630.597C631.136 270.946 632.051 271 633.344 271C634.636 271 635.552 270.946 636.09 270.838C636.305 270.729 636.575 270.675 636.898 270.675C637.329 270.783 637.652 270.838 637.867 270.838H639.159C639.806 270.621 640.452 270.513 641.098 270.513C641.852 270.621 642.606 270.567 643.36 270.35C644.975 270.026 646.591 269.755 648.206 269.538C649.822 269.43 651.383 269.105 652.891 268.564C655.045 267.806 657.091 267.048 659.03 266.29C661.076 265.533 663.014 264.558 664.845 263.367C665.492 262.934 666.084 262.501 666.622 262.068C667.269 261.635 667.861 261.202 668.399 260.769C669.153 260.227 669.853 259.686 670.5 259.145C671.146 258.495 671.738 257.846 672.276 257.196C672.6 256.655 672.977 256.222 673.407 255.897C673.838 255.464 674.269 254.977 674.7 254.435C675.777 252.919 676.692 251.35 677.446 249.726C678.2 248.102 678.9 246.315 679.546 244.366C679.869 243.284 680.085 242.201 680.192 241.118C680.408 240.036 680.623 238.899 680.838 237.708V234.785C681.054 234.243 681.054 233.702 680.838 233.161C680.838 230.562 680.623 228.397 680.192 226.665C680.085 226.448 680.031 226.232 680.031 226.015C680.031 225.69 679.977 225.366 679.869 225.041L678.577 221.793C678.254 220.71 677.823 219.736 677.284 218.87C675.454 215.946 673.461 213.565 671.307 211.724C669.261 209.884 666.784 208.043 663.876 206.202C662.045 205.012 659.945 204.091 657.576 203.442C655.314 202.792 653.106 202.088 650.952 201.33C650.414 201.114 649.875 201.006 649.337 201.006C648.798 201.006 648.26 200.897 647.721 200.681C644.706 199.815 641.636 199.057 638.513 198.407C635.498 197.649 632.536 196.783 629.628 195.809C628.336 195.376 627.043 195.051 625.751 194.834C624.566 194.51 623.382 194.077 622.197 193.535C620.043 192.669 618.158 191.803 616.543 190.937C615.035 189.962 613.85 188.338 612.989 186.065C612.773 185.524 612.612 184.82 612.504 183.954C612.396 182.979 612.45 182.113 612.666 181.355C613.204 178.432 614.12 176.267 615.412 174.859C616.812 173.344 618.751 172.044 621.228 170.962C622.735 170.312 624.459 169.879 626.397 169.662C628.336 169.446 630.274 169.392 632.213 169.5C634.259 169.608 636.198 169.879 638.029 170.312C639.967 170.637 641.583 171.07 642.875 171.611C644.275 172.369 645.729 173.289 647.237 174.372C648.098 175.022 648.906 175.942 649.66 177.133C650.414 178.324 651.006 179.461 651.437 180.543C651.975 181.734 652.406 182.925 652.729 184.116C653.052 185.307 653.86 186.173 655.153 186.714C655.799 186.931 656.606 187.039 657.576 187.039H670.661C671.846 187.039 672.923 186.985 673.892 186.877C674.861 186.66 675.615 186.227 676.154 185.578C676.584 185.036 676.8 184.224 676.8 183.142C676.908 181.951 676.854 180.922 676.638 180.056C676.1 177.891 675.507 175.888 674.861 174.047C674.323 172.207 673.515 170.42 672.438 168.688Z" fill="#DBD6C0"/>
</svg>
