<svg width="2800" height="706" viewBox="0 0 2800 706" fill="none" xmlns="http://www.w3.org/2000/svg">
<path d="M0 89.0259C0 56.4556 0 40.1704 6.41471 28.1367C12.2958 17.104 21.7868 8.42648 33.2992 3.55632C45.856 -1.75568 62.0711 -0.295916 94.5013 2.62362L830.138 68.8494C857.709 71.3316 871.495 72.5726 881.963 78.6609C891.581 84.255 899.259 92.6575 903.967 102.741C909.091 113.716 909.091 127.561 909.091 155.251V479.924C909.068 479.858 909.045 479.791 909.023 479.725C905.051 468.097 900.718 456.469 896.023 444.841C894.94 441.934 894.037 439.208 893.315 436.665C892.593 433.758 891.51 430.851 890.066 427.944L877.066 393.06C876.344 391.606 875.803 390.334 875.442 389.244C875.442 387.791 875.08 386.337 874.358 384.884C866.775 366.715 859.734 348.364 853.235 329.832C847.096 311.3 840.416 292.949 833.194 274.781C830.306 267.513 827.597 260.427 825.07 253.523C822.542 246.255 819.834 238.988 816.945 231.72L812.612 218.639C810.085 212.461 807.738 206.466 805.571 200.652C803.405 194.474 801.057 188.297 798.53 182.12C796.724 177.759 795.1 173.58 793.655 169.583C792.572 165.223 790.044 161.952 786.072 159.772C783.545 157.955 780.114 157.228 775.781 157.592H716.202C715.48 157.955 714.758 158.137 714.035 158.137C713.313 157.773 712.591 157.773 711.869 158.137C708.98 158.863 706.633 159.772 704.828 160.862C701.578 163.406 699.231 166.858 697.786 171.218C696.703 175.215 695.259 179.213 693.453 183.21C690.204 190.841 687.134 198.653 684.246 206.647C681.357 214.642 678.468 222.454 675.58 230.085C674.857 231.902 674.316 233.537 673.955 234.991C673.594 236.444 673.052 238.08 672.33 239.896C664.025 259.882 656.261 280.049 649.04 300.399C642.179 320.748 634.596 340.915 626.291 360.901C623.403 368.168 620.694 375.436 618.167 382.703C615.639 389.607 612.931 396.693 610.042 403.961C607.154 411.592 604.265 419.404 601.376 427.399C598.544 435.236 595.712 442.899 592.88 450.388C593.29 448.234 593.7 446.022 594.111 443.751V433.939C594.833 432.122 594.833 430.306 594.111 428.489C594.111 419.768 593.389 412.5 591.944 406.686C591.583 405.959 591.403 405.233 591.403 404.506C591.403 403.416 591.222 402.326 590.861 401.236L586.528 390.334C585.445 386.7 584 383.43 582.195 380.523C576.056 370.712 569.376 362.718 562.154 356.54C555.294 350.363 546.989 344.185 537.239 338.008C531.101 334.011 524.06 330.922 516.116 328.742C508.533 326.562 501.131 324.2 493.909 321.656C492.103 320.929 490.298 320.566 488.493 320.566C486.687 320.566 484.882 320.203 483.076 319.476C472.966 316.569 462.675 314.025 452.203 311.845C442.093 309.301 432.163 306.394 422.414 303.124C418.081 301.67 413.748 300.58 409.415 299.854C405.443 298.763 401.471 297.31 397.499 295.493C390.277 292.586 383.958 289.679 378.542 286.772C373.486 283.502 369.514 278.051 366.626 270.42C365.903 268.603 365.362 266.241 365.001 263.334C364.64 260.064 364.82 257.157 365.542 254.613C367.348 244.802 370.417 237.534 374.75 232.811C379.444 227.723 385.944 223.363 394.249 219.729C399.304 217.549 405.081 216.095 411.581 215.368C418.081 214.642 424.58 214.46 431.08 214.823C437.94 215.187 444.44 216.095 450.578 217.549C457.078 218.639 462.494 220.092 466.827 221.909C471.522 224.453 476.396 227.542 481.451 231.175C484.34 233.356 487.048 236.444 489.576 240.441C492.103 244.439 494.089 248.254 495.534 251.888C497.339 255.885 498.784 259.882 499.867 263.879C500.95 267.876 503.658 270.783 507.991 272.6C510.158 273.327 512.866 273.69 516.116 273.69H559.988C563.96 273.69 567.571 273.509 570.821 273.145C574.07 272.419 576.598 270.965 578.403 268.785C579.848 266.968 580.57 264.243 580.57 260.609C580.931 256.612 580.751 253.16 580.028 250.253C578.223 242.985 576.237 236.263 574.07 230.085C572.265 223.908 569.557 217.912 565.946 212.098C539.587 169.22 491.381 148.326 421.33 149.416C420.608 150.142 418.983 150.324 416.456 149.961C414.289 149.597 412.664 149.597 411.581 149.961C407.97 150.688 404.359 151.233 400.748 151.596C397.499 151.596 394.068 151.959 390.457 152.686C381.069 154.866 372.222 157.228 363.917 159.772C355.612 162.316 347.849 165.768 340.627 170.128C329.434 177.396 319.504 185.572 310.838 194.656C302.533 203.377 295.672 214.097 290.256 226.815C288.811 230.449 287.728 234.082 287.006 237.716C286.284 241.35 285.381 245.165 284.298 249.162C284.298 252.07 284.117 254.25 283.756 255.703C283.034 259.7 282.853 264.788 283.214 270.965C283.576 277.142 284.117 281.866 284.839 285.137C285.923 289.134 286.825 292.949 287.547 296.583C288.27 299.854 289.353 303.124 290.797 306.394C294.769 315.842 300.186 324.2 307.046 331.467C313.907 338.735 321.49 345.094 329.795 350.545C336.294 354.542 343.336 358.175 350.918 361.446C358.501 364.353 366.445 367.26 374.75 370.167C377.639 370.894 380.166 371.62 382.333 372.347C384.861 373.074 387.569 373.801 390.457 374.527C391.902 375.254 393.166 375.617 394.249 375.617C395.332 375.617 396.776 375.981 398.582 376.708C403.998 378.524 409.595 380.16 415.372 381.613C421.511 382.703 427.469 384.157 433.246 385.974C436.135 386.7 438.663 387.427 440.829 388.154C443.357 388.517 445.884 389.062 448.412 389.789L467.911 396.33C474.771 398.147 480.91 400.69 486.326 403.961C489.215 405.414 491.201 406.504 492.284 407.231C500.95 412.682 507.089 420.313 510.699 430.124C511.422 431.941 511.963 434.484 512.324 437.755C513.047 441.025 513.047 443.932 512.324 446.476C509.436 459.194 504.38 468.278 497.159 473.729C489.937 479.18 480.188 483.54 467.911 486.811C466.105 487.537 464.119 488.082 461.953 488.446C460.147 488.446 458.342 488.628 456.536 488.991C454.009 488.991 452.203 489.173 451.12 489.536C448.231 490.263 444.259 490.626 439.204 490.626C434.149 490.626 430.177 490.263 427.288 489.536H424.58C421.691 488.809 418.983 488.446 416.456 488.446C414.289 488.446 411.942 488.082 409.415 487.356C397.86 484.085 388.11 479.906 380.166 474.819C378 473.366 375.833 471.731 373.667 469.914C371.5 468.097 369.514 466.098 367.709 463.918C365.181 460.648 362.834 457.195 360.668 453.562C358.501 449.928 356.696 445.931 355.251 441.57C353.446 437.21 352.182 433.031 351.46 429.034C350.738 424.673 348.391 421.585 344.419 419.768C341.891 418.678 339.002 418.133 335.753 418.133H292.422C288.089 418.133 284.117 418.496 280.506 419.223C277.257 419.586 274.729 421.221 272.923 424.128C271.118 426.308 270.396 429.579 270.757 433.939C271.118 437.937 271.66 441.389 272.382 444.296C273.104 446.839 273.465 449.201 273.465 451.381C273.826 453.562 274.368 455.742 275.09 457.922C278.34 469.914 282.853 480.27 288.631 488.991C297.658 503.526 308.852 515.336 322.212 524.42C335.572 533.141 351.099 540.409 368.792 546.223C372.764 547.676 377.097 548.766 381.791 549.493C386.485 550.22 390.999 551.128 395.332 552.218C397.138 552.582 398.762 552.763 400.207 552.763C401.651 553.127 403.276 553.309 405.081 553.309C407.248 554.035 409.595 554.217 412.123 553.854C415.011 553.854 417.719 554.217 420.247 554.944H425.663C427.469 555.307 430.538 555.489 434.871 555.489C439.204 555.489 442.273 555.307 444.079 554.944C444.801 554.58 445.704 554.399 446.787 554.399C448.231 554.762 449.315 554.944 450.037 554.944H454.37C456.536 554.217 458.703 553.854 460.869 553.854C463.397 554.217 465.925 554.035 468.452 553.309C473.869 552.218 479.285 551.31 484.701 550.583C490.118 550.22 495.353 549.13 500.409 547.313C507.63 544.769 514.491 542.226 520.99 539.682C527.851 537.138 534.351 533.868 540.489 529.871C542.656 528.417 544.642 526.964 546.447 525.51C548.614 524.057 550.6 522.603 552.405 521.15C554.933 519.333 557.28 517.516 559.446 515.699C561.613 513.519 563.599 511.339 565.404 509.158C566.488 507.341 567.751 505.888 569.196 504.798C570.64 503.344 572.084 501.709 573.529 499.892C574.139 499.032 574.734 498.167 575.313 497.297C572.719 504.84 569.852 512.246 566.712 519.515C565.99 520.968 565.267 522.785 564.545 524.965C563.823 527.145 563.101 529.507 562.379 532.051C562.018 534.231 561.837 536.412 561.837 538.592C562.198 540.772 563.281 542.407 565.087 543.497C567.976 545.314 572.67 546.223 579.169 546.223C586.03 545.859 591.807 545.678 596.501 545.678C599.751 545.678 603.543 545.859 607.876 546.223H620.333C624.666 546.223 628.458 546.041 631.708 545.678C635.318 544.951 638.027 543.861 639.832 542.407C642.721 540.227 644.707 537.138 645.79 533.141C647.234 529.144 648.679 525.329 650.123 521.695C652.651 515.154 654.817 508.613 656.623 502.072C658.789 495.168 661.317 488.628 664.205 482.45C665.65 478.816 666.914 475.183 667.997 471.549C669.08 467.915 671.066 465.008 673.955 462.828C677.927 459.921 683.343 458.649 690.204 459.012H795.822C797.627 459.012 799.252 459.194 800.696 459.557H806.113C809.724 460.284 812.612 461.556 814.779 463.373C816.945 464.826 818.57 466.643 819.654 468.824C820.737 471.004 821.639 473.547 822.362 476.454C823.445 478.998 824.528 481.905 825.611 485.175C827.778 490.626 829.764 496.258 831.569 502.072C833.736 507.886 835.722 513.7 837.527 519.515C838.972 522.785 840.055 526.055 840.777 529.326C841.86 532.596 843.305 535.685 845.11 538.592C846.916 541.862 849.804 544.042 853.776 545.133C855.943 545.859 858.109 546.223 860.276 546.223C862.803 545.859 865.512 545.678 868.4 545.678H893.857C897.962 545.678 903.04 545.841 909.091 546.167C909.083 571.549 908.896 584.637 904.034 595.13C899.388 605.159 891.806 613.539 882.292 619.162C871.938 625.281 858.29 626.646 830.993 629.376L95.3569 702.961C62.6674 706.231 46.3226 707.865 33.6507 702.609C22.0343 697.79 12.4393 689.104 6.48994 678.022C0 665.932 0 649.501 0 616.64V89.0259Z" fill="#ECE6CE" fill-opacity="0.92"/>
<path d="M1566.2 295.493C1566.93 291.496 1567.11 286.59 1566.74 280.776C1566.74 274.599 1566.2 269.512 1565.12 265.514C1562.95 257.52 1560.25 251.161 1557 246.437C1553.75 241.713 1548.87 237.353 1542.37 233.356C1536.96 230.085 1530.28 227.723 1522.33 226.27C1514.39 224.453 1505.72 223.363 1496.33 222.999C1487.31 222.636 1477.92 222.636 1468.17 222.999H1440.54L1437.3 224.09H1434.59C1430.98 225.543 1428.63 227.723 1427.55 230.63C1426.1 233.537 1425.38 237.534 1425.38 242.622V322.201C1425.38 327.288 1426.28 331.286 1428.09 334.193C1429.53 336.373 1431.7 338.008 1434.59 339.098C1437.48 340.188 1440.73 340.915 1444.34 341.278H1455.71C1460.04 340.915 1464.02 340.733 1467.63 340.733C1486.76 340.733 1504.28 339.825 1520.16 338.008C1536.05 336.191 1548.15 329.832 1556.45 318.931C1558.62 315.66 1560.43 312.208 1561.87 308.575C1563.31 304.577 1564.76 300.217 1566.2 295.493Z" fill="#ECE6CE" fill-opacity="0.92"/>
<path fill-rule="evenodd" clip-rule="evenodd" d="M945.467 545.678C945.55 568.659 946.194 581.356 951.207 591.391C956.486 601.96 965.053 610.53 975.619 615.811C987.131 621.564 1002.15 621.564 1032.18 621.564H1767.82C1797.85 621.564 1812.87 621.564 1824.38 615.811C1834.95 610.53 1843.51 601.96 1848.79 591.391C1853.9 581.178 1854.47 568.206 1854.54 544.442C1852.84 545.266 1850.64 545.678 1847.92 545.678H1677.77C1672.72 545.678 1668.21 545.496 1664.23 545.133C1660.62 544.406 1657.92 542.589 1656.11 539.682C1654.67 537.502 1653.94 534.776 1653.94 531.506V171.218C1654.3 167.948 1655.03 165.404 1656.11 163.587C1657.55 161.044 1660.44 159.227 1664.78 158.137C1665.5 157.773 1666.22 157.773 1666.94 158.137C1667.66 158.137 1668.39 157.955 1669.11 157.592H1715.15C1719.12 157.592 1722.91 157.773 1726.52 158.137C1730.49 158.137 1733.38 159.409 1735.19 161.952C1736.99 164.496 1737.9 167.948 1737.9 172.308V432.304C1737.9 435.211 1737.72 438.118 1737.35 441.025C1737.35 443.569 1737.72 446.112 1738.44 448.656V461.738C1738.8 463.918 1739.34 465.917 1740.06 467.733C1742.59 472.457 1747.65 474.819 1755.23 474.819H1828.96C1833.29 474.456 1837.45 474.456 1841.42 474.819C1845.39 474.819 1849 475.183 1852.25 475.909C1853.08 476.077 1853.85 476.264 1854.55 476.47V162.709C1854.55 132.667 1854.55 117.645 1848.79 106.13C1843.51 95.5613 1834.95 86.992 1824.38 81.7109C1812.87 75.9572 1797.85 75.9572 1767.82 75.9572H1032.18C1002.15 75.9572 987.131 75.9572 975.619 81.7109C965.053 86.992 956.486 95.5613 951.207 106.13C945.791 116.972 945.474 130.922 945.456 157.592H1023.07C1029.21 157.592 1033.91 158.863 1037.16 161.407C1039.68 163.224 1041.49 165.949 1042.57 169.583L1045.82 179.394C1047.99 185.208 1049.97 191.204 1051.78 197.381C1053.95 203.195 1056.11 209.191 1058.28 215.368C1066.59 238.261 1074.35 261.517 1081.57 285.137C1089.15 308.756 1097.28 332.194 1105.94 355.45C1108.83 362.718 1111.36 370.167 1113.53 377.798C1115.69 385.429 1118.22 392.878 1121.11 400.145L1123.28 405.596C1124 407.413 1125.26 408.866 1127.07 409.957L1129.23 411.047C1129.96 411.41 1130.68 411.228 1131.4 410.502C1134.29 409.775 1136.27 407.595 1137.36 403.961C1138.44 400.327 1139.52 397.057 1140.61 394.15C1143.5 385.792 1146.02 377.616 1148.19 369.622C1150.72 361.264 1153.43 352.906 1156.32 344.549L1177.98 278.051L1199.65 210.463C1201.45 204.649 1203.26 199.017 1205.06 193.566L1210.48 176.124L1213.73 167.403C1214.81 164.496 1216.8 162.134 1219.69 160.317C1221.85 158.5 1224.56 157.592 1227.81 157.592H1320.97C1324.58 157.592 1327.29 158.318 1329.1 159.772C1333.07 161.952 1335.05 166.131 1335.05 172.308V522.24C1335.05 526.237 1334.87 530.234 1334.51 534.231C1334.51 537.865 1333.43 540.59 1331.26 542.407C1329.1 544.224 1326.39 545.314 1323.14 545.678H1271.68C1268.79 544.951 1266.27 544.406 1264.1 544.042C1262.29 543.679 1260.67 542.407 1259.23 540.227C1257.78 538.41 1257.06 536.048 1257.06 533.141V355.995C1256.7 350.908 1256.52 346.184 1256.52 341.823V318.931C1256.88 315.66 1256.7 312.572 1255.98 309.665C1255.25 307.121 1254.89 304.396 1254.89 301.489C1254.89 298.582 1253.81 296.765 1251.64 296.038C1250.56 295.675 1249.66 295.856 1248.93 296.583C1248.57 297.31 1248.21 297.855 1247.85 298.218C1246.41 299.672 1245.14 301.489 1244.06 303.669L1241.89 309.12C1239.73 314.57 1237.56 320.203 1235.39 326.017C1233.59 331.831 1231.6 337.645 1229.44 343.459L1227.27 349.999C1226.91 352.18 1226.19 354.36 1225.1 356.54C1223.3 361.264 1221.67 365.988 1220.23 370.712C1218.78 375.436 1217.16 380.16 1215.35 384.884C1214.63 385.974 1214.27 387.246 1214.27 388.699C1214.27 389.789 1213.91 390.879 1213.19 391.969C1211.74 395.24 1210.48 398.692 1209.4 402.326C1208.67 405.959 1207.41 409.593 1205.6 413.227C1204.16 416.497 1202.9 419.949 1201.81 423.583C1201.09 427.217 1200.01 430.851 1198.56 434.484C1194.23 445.022 1190.44 455.742 1187.19 466.643C1183.94 477.181 1180.33 487.719 1176.36 498.257C1175.63 499.347 1175.27 500.437 1175.27 501.527C1175.27 502.618 1174.91 503.708 1174.19 504.798C1172.38 508.795 1170.94 512.974 1169.86 517.334C1168.77 521.331 1167.33 525.329 1165.52 529.326C1164.44 531.869 1163.36 534.231 1162.27 536.412C1161.55 538.592 1160.29 540.409 1158.48 541.862C1156.68 543.316 1154.87 544.224 1153.07 544.587C1151.26 544.587 1149.09 544.951 1146.57 545.678H1134.11C1131.58 545.678 1128.51 545.859 1124.9 546.223H1114.61C1111.36 546.223 1108.29 546.041 1105.4 545.678C1102.51 545.314 1100.35 544.588 1098.9 543.497C1096.01 541.68 1094.03 539.682 1092.94 537.502C1091.86 534.958 1090.6 532.051 1089.15 528.781C1087.35 524.42 1085.72 520.06 1084.28 515.699C1083.2 510.975 1081.75 506.433 1079.95 502.072L1078.32 497.167C1076.51 492.806 1074.89 488.264 1073.45 483.54C1072 478.453 1070.38 473.729 1068.57 469.369C1068.21 468.278 1067.85 467.37 1067.49 466.643C1067.49 465.553 1067.31 464.463 1066.95 463.373C1065.14 460.102 1063.7 456.65 1062.61 453.017C1061.53 449.383 1060.27 445.749 1058.82 442.115C1058.46 441.389 1058.1 440.48 1057.74 439.39C1057.74 438.3 1057.56 437.391 1057.2 436.665C1055.75 433.031 1054.49 429.397 1053.41 425.763C1052.68 422.13 1051.42 418.496 1049.61 414.862C1046.73 407.595 1044.02 399.964 1041.49 391.969C1038.96 383.975 1036.25 376.163 1033.37 368.532C1030.12 359.447 1027.05 350.181 1024.16 340.733C1021.27 331.286 1017.84 322.201 1013.87 313.48C1012.06 308.393 1010.07 304.214 1007.91 300.944C1007.19 300.217 1006.46 299.672 1005.74 299.308C1005.02 298.582 1004.12 298.582 1003.03 299.308C1001.23 300.399 1000.33 302.215 1000.33 304.759C1000.33 307.303 999.964 309.846 999.242 312.39C998.52 314.934 998.159 317.659 998.159 320.566C998.52 323.11 998.701 325.835 998.701 328.742V340.733C998.701 344.73 998.52 348.728 998.159 352.725V533.141C998.159 536.048 997.437 538.41 995.992 540.227C994.548 542.771 991.84 544.406 987.868 545.133C985.34 545.859 982.632 546.223 979.744 546.223C976.855 545.859 973.966 545.678 971.078 545.678H945.467ZM1625.78 206.102C1634.09 217.73 1640.05 230.63 1643.66 244.802C1647.63 258.974 1649.07 276.052 1647.99 296.038C1647.27 304.032 1646 311.482 1644.2 318.386C1642.39 324.926 1640.23 331.104 1637.7 336.918L1635.53 341.278C1635.17 342.369 1634.63 343.64 1633.91 345.094L1629.57 352.725C1628.49 354.905 1627.05 357.085 1625.24 359.266C1618.02 369.44 1609.17 377.798 1598.7 384.339C1588.59 390.516 1577.04 395.785 1564.04 400.145C1560.06 401.599 1555.91 402.507 1551.58 402.871C1547.25 403.234 1542.91 403.961 1538.58 405.051C1536.41 405.414 1534.25 405.596 1532.08 405.596C1529.91 405.596 1527.75 405.778 1525.58 406.141H1442.71C1437.66 406.141 1433.68 407.231 1430.8 409.411C1427.18 411.955 1425.38 416.497 1425.38 423.038V527.69C1425.74 532.778 1425.02 536.775 1423.21 539.682C1421.77 542.226 1418.52 544.224 1413.46 545.678C1410.94 546.404 1408.23 546.586 1405.34 546.223C1402.45 545.859 1399.56 545.678 1396.67 545.678H1353.88C1350.63 545.314 1347.93 544.224 1345.76 542.407C1343.59 540.59 1342.33 537.865 1341.97 534.231C1341.61 530.234 1341.43 526.237 1341.43 522.24V196.291C1341.43 191.204 1341.25 185.208 1340.88 178.304C1340.88 171.4 1341.79 166.494 1343.59 163.587C1345.04 161.407 1347.75 159.59 1351.72 158.137C1352.44 157.773 1353.16 157.773 1353.88 158.137C1354.97 158.137 1355.87 157.955 1356.59 157.592H1522.87C1526.12 157.228 1529.19 157.41 1532.08 158.137H1534.79C1536.59 158.863 1538.58 159.227 1540.75 159.227C1542.91 159.227 1544.9 159.59 1546.7 160.317C1548.51 160.68 1550.13 160.862 1551.58 160.862C1553.02 160.862 1554.65 161.225 1556.45 161.952L1573.79 167.403C1579.56 168.856 1584.98 171.037 1590.04 173.944C1591.84 175.397 1593.83 176.669 1595.99 177.759C1598.16 178.849 1600.33 180.303 1602.49 182.12C1604.3 183.21 1605.74 184.482 1606.83 185.935C1608.27 187.025 1609.89 188.297 1611.7 189.75L1614.95 193.021C1619.28 197.381 1622.89 201.742 1625.78 206.102Z" fill="#ECE6CE" fill-opacity="0.92"/>
<path fill-rule="evenodd" clip-rule="evenodd" d="M2793.58 28.1367C2800 40.1704 2800 56.4556 2800 89.0259V616.64C2800 649.501 2800 665.932 2793.51 678.022C2787.56 689.104 2777.97 697.79 2766.35 702.609C2753.68 707.865 2737.33 706.231 2704.64 702.961L1969.01 629.376C1941.71 626.646 1928.06 625.281 1917.71 619.162C1908.19 613.539 1900.61 605.159 1895.97 595.13C1890.91 584.216 1890.91 570.496 1890.91 543.055V541.744C1892.59 543.467 1894.76 544.596 1897.43 545.133C1901.4 545.496 1905.91 545.678 1910.97 545.678H2165.53C2169.15 545.678 2172.03 544.769 2174.2 542.952C2177.09 541.135 2178.71 538.41 2179.08 534.776C2179.44 530.779 2179.62 526.6 2179.62 522.24V497.167C2179.62 494.26 2179.44 491.535 2179.08 488.991C2179.08 486.447 2178.71 484.267 2177.99 482.45C2176.91 479.543 2174.92 477.545 2172.03 476.454C2169.87 475.364 2167.34 474.819 2164.45 474.819H2003.04C2001.24 474.819 1999.25 475.001 1997.09 475.364C1994.92 475.364 1992.93 475.183 1991.13 474.819H1985.71C1983.91 474.092 1982.1 473.729 1980.3 473.729C1978.85 473.366 1977.59 472.639 1976.51 471.549C1973.98 469.732 1972.35 467.188 1971.63 463.918C1971.27 460.284 1971.09 456.287 1971.09 451.927V395.24C1971.09 393.06 1971.27 391.061 1971.63 389.244C1972.71 385.974 1974.34 383.612 1976.51 382.158C1979.03 380.341 1981.92 379.251 1985.17 378.888C1988.78 378.161 1992.57 377.979 1996.55 378.343H2114.62C2117.15 378.343 2120.22 378.524 2123.83 378.888H2135.2C2139.17 378.888 2142.61 378.706 2145.49 378.343C2148.74 377.979 2151.27 377.253 2153.08 376.163C2155.24 374.346 2156.69 371.984 2157.41 369.077C2158.13 367.26 2158.49 365.08 2158.49 362.536V344.549C2158.85 340.552 2158.85 336.736 2158.49 333.102C2158.49 329.105 2158.13 325.472 2157.41 322.201C2156.69 318.931 2155.42 316.751 2153.62 315.66C2152.17 314.57 2149.83 313.844 2146.58 313.48C2143.69 313.117 2140.44 312.935 2136.83 312.935C2133.22 312.572 2129.43 312.572 2125.45 312.935H1984.63C1981.74 312.572 1979.21 311.663 1977.05 310.21C1975.24 309.12 1973.98 307.666 1973.26 305.849C1972.53 303.669 1971.81 301.125 1971.09 298.218V251.343C1971.09 246.982 1971.27 243.167 1971.63 239.896C1972.35 236.263 1973.98 233.537 1976.51 231.72C1977.95 230.63 1980.3 229.904 1983.55 229.54C1986.8 228.813 1990.23 228.45 1993.84 228.45C1997.81 228.087 2001.6 228.087 2005.21 228.45H2161.2C2164.45 228.45 2167.16 227.723 2169.33 226.27C2171.85 224.816 2173.66 221.909 2174.74 217.549C2174.74 213.915 2174.92 211.19 2175.28 209.373C2175.64 206.829 2175.64 204.286 2175.28 201.742V184.845C2175.64 181.938 2175.64 179.213 2175.28 176.669V170.673C2174.56 169.22 2174.02 167.766 2173.66 166.313C2173.66 164.859 2173.3 163.587 2172.58 162.497C2170.77 159.954 2167.88 158.5 2163.91 158.137C2159.94 157.773 2155.78 157.592 2151.45 157.592H1901.76C1901.04 157.955 1900.32 158.137 1899.59 158.137C1898.87 157.773 1898.15 157.773 1897.43 158.137C1894.63 158.906 1892.45 160.036 1890.91 161.528V155.252C1890.91 127.561 1890.91 113.716 1896.03 102.741C1900.74 92.6575 1908.42 84.255 1918.04 78.6609C1928.51 72.5726 1942.29 71.3316 1969.86 68.8494L2705.5 2.62362C2737.93 -0.295916 2754.14 -1.75568 2766.7 3.55632C2778.21 8.42648 2787.7 17.104 2793.58 28.1367ZM2461.5 212.098C2435.14 169.22 2386.94 148.326 2316.89 149.416C2316.16 150.142 2314.54 150.324 2312.01 149.961C2309.85 149.597 2308.22 149.597 2307.14 149.961C2303.53 150.688 2299.92 151.233 2296.3 151.596C2293.05 151.596 2289.62 151.959 2286.01 152.686C2276.63 154.866 2267.78 157.228 2259.47 159.772C2251.17 162.316 2243.4 165.768 2236.18 170.128C2224.99 177.396 2215.06 185.572 2206.39 194.656C2198.09 203.377 2191.23 214.097 2185.81 226.815C2184.37 230.449 2183.28 234.082 2182.56 237.716C2181.84 241.35 2180.94 245.165 2179.85 249.162C2179.85 252.07 2179.67 254.25 2179.31 255.703C2178.59 259.7 2178.41 264.788 2178.77 270.965C2179.13 277.142 2179.67 281.866 2180.4 285.137C2181.48 289.134 2182.38 292.949 2183.1 296.583C2183.83 299.853 2184.91 303.124 2186.35 306.394C2190.33 315.842 2195.74 324.2 2202.6 331.467C2209.46 338.735 2217.05 345.094 2225.35 350.545C2231.85 354.542 2238.89 358.175 2246.47 361.446C2254.06 364.353 2262 367.26 2270.31 370.167C2273.19 370.894 2275.72 371.62 2277.89 372.347C2280.42 373.074 2283.12 373.801 2286.01 374.527C2287.46 375.254 2288.72 375.617 2289.8 375.617C2290.89 375.617 2292.33 375.981 2294.14 376.708C2299.55 378.524 2305.15 380.16 2310.93 381.613C2317.07 382.703 2323.02 384.157 2328.8 385.974C2331.69 386.7 2334.22 387.427 2336.39 388.154C2338.91 388.517 2341.44 389.062 2343.97 389.789L2363.47 396.33C2370.33 398.147 2376.47 400.69 2381.88 403.961C2384.77 405.414 2386.76 406.504 2387.84 407.231C2396.51 412.682 2402.64 420.313 2406.26 430.124C2406.98 431.941 2407.52 434.484 2407.88 437.755C2408.6 441.025 2408.6 443.932 2407.88 446.476C2404.99 459.194 2399.94 468.278 2392.71 473.729C2385.49 479.18 2375.74 483.54 2363.47 486.811C2361.66 487.537 2359.68 488.082 2357.51 488.446C2355.7 488.446 2353.9 488.628 2352.09 488.991C2349.56 488.991 2347.76 489.173 2346.68 489.536C2343.79 490.263 2339.82 490.626 2334.76 490.626C2329.71 490.626 2325.73 490.263 2322.84 489.536H2320.14C2317.25 488.809 2314.54 488.446 2312.01 488.446C2309.85 488.446 2307.5 488.082 2304.97 487.356C2293.42 484.085 2283.67 479.906 2275.72 474.819C2273.56 473.366 2271.39 471.731 2269.22 469.914C2267.06 468.097 2265.07 466.098 2263.26 463.918C2260.74 460.648 2258.39 457.195 2256.22 453.562C2254.06 449.928 2252.25 445.931 2250.81 441.57C2249 437.21 2247.74 433.031 2247.02 429.034C2246.29 424.673 2243.95 421.585 2239.97 419.768C2237.45 418.678 2234.56 418.133 2231.31 418.133H2187.98C2183.65 418.133 2179.67 418.496 2176.06 419.223C2172.81 419.586 2170.28 421.221 2168.48 424.128C2166.67 426.308 2165.95 429.579 2166.31 433.939C2166.67 437.937 2167.22 441.389 2167.94 444.296C2168.66 446.839 2169.02 449.201 2169.02 451.381C2169.38 453.562 2169.92 455.742 2170.65 457.922C2173.9 469.914 2178.41 480.27 2184.19 488.991C2193.21 503.526 2204.41 515.336 2217.77 524.42C2231.13 533.141 2246.65 540.409 2264.35 546.223C2268.32 547.676 2272.65 548.766 2277.35 549.493C2282.04 550.22 2286.56 551.128 2290.89 552.218C2292.69 552.582 2294.32 552.763 2295.76 552.763C2297.21 553.127 2298.83 553.309 2300.64 553.309C2302.8 554.035 2305.15 554.217 2307.68 553.854C2310.57 553.854 2313.28 554.217 2315.8 554.944H2321.22C2323.02 555.307 2326.09 555.489 2330.43 555.489C2334.76 555.489 2337.83 555.307 2339.63 554.944C2340.36 554.58 2341.26 554.399 2342.34 554.399C2343.79 554.762 2344.87 554.944 2345.59 554.944H2349.93C2352.09 554.217 2354.26 553.854 2356.43 553.854C2358.95 554.217 2361.48 554.035 2364.01 553.309C2369.42 552.218 2374.84 551.31 2380.26 550.583C2385.67 550.22 2390.91 549.13 2395.96 547.313C2403.19 544.769 2410.05 542.226 2416.55 539.682C2423.41 537.138 2429.91 533.868 2436.04 529.871C2438.21 528.417 2440.2 526.964 2442 525.51C2444.17 524.057 2446.16 522.603 2447.96 521.15C2450.49 519.333 2452.84 517.516 2455 515.699C2457.17 513.519 2459.15 511.339 2460.96 509.158C2462.04 507.341 2463.31 505.888 2464.75 504.798C2466.2 503.344 2467.64 501.709 2469.08 499.892C2472.7 494.805 2475.76 489.536 2478.29 484.085C2480.82 478.635 2483.17 472.639 2485.33 466.098C2486.42 462.464 2487.14 458.831 2487.5 455.197C2488.22 451.563 2488.94 447.748 2489.67 443.751V433.939C2490.39 432.122 2490.39 430.306 2489.67 428.489C2489.67 419.768 2488.94 412.5 2487.5 406.686C2487.14 405.959 2486.96 405.233 2486.96 404.506C2486.96 403.416 2486.78 402.326 2486.42 401.236L2482.08 390.334C2481 386.7 2479.56 383.43 2477.75 380.523C2471.61 370.712 2464.93 362.718 2457.71 356.54C2450.85 350.363 2442.54 344.185 2432.8 338.008C2426.66 334.011 2419.62 330.922 2411.67 328.742C2404.09 326.562 2396.69 324.2 2389.46 321.656C2387.66 320.929 2385.85 320.566 2384.05 320.566C2382.24 320.566 2380.44 320.203 2378.63 319.476C2368.52 316.569 2358.23 314.025 2347.76 311.845C2337.65 309.301 2327.72 306.394 2317.97 303.124C2313.64 301.67 2309.3 300.58 2304.97 299.854C2301 298.763 2297.03 297.31 2293.05 295.493C2285.83 292.586 2279.51 289.679 2274.1 286.772C2269.04 283.502 2265.07 278.051 2262.18 270.42C2261.46 268.603 2260.92 266.241 2260.56 263.334C2260.2 260.064 2260.38 257.157 2261.1 254.613C2262.9 244.802 2265.97 237.534 2270.31 232.811C2275 227.723 2281.5 223.363 2289.8 219.729C2294.86 217.549 2300.64 216.095 2307.14 215.368C2313.64 214.642 2320.14 214.46 2326.64 214.823C2333.5 215.187 2340 216.095 2346.13 217.549C2352.63 218.639 2358.05 220.092 2362.38 221.909C2367.08 224.453 2371.95 227.542 2377.01 231.175C2379.9 233.356 2382.6 236.444 2385.13 240.441C2387.66 244.439 2389.65 248.254 2391.09 251.888C2392.9 255.885 2394.34 259.882 2395.42 263.879C2396.51 267.876 2399.21 270.783 2403.55 272.6C2405.71 273.327 2408.42 273.69 2411.67 273.69H2455.54C2459.52 273.69 2463.13 273.509 2466.38 273.145C2469.63 272.419 2472.15 270.965 2473.96 268.785C2475.4 266.968 2476.13 264.243 2476.13 260.609C2476.49 256.612 2476.31 253.16 2475.58 250.253C2473.78 242.985 2471.79 236.263 2469.63 230.085C2467.82 223.908 2465.11 217.912 2461.5 212.098Z" fill="#ECE6CE" fill-opacity="0.92"/>
<path d="M783.906 395.24C788.6 393.423 790.766 390.334 790.405 385.974C790.044 381.613 788.961 377.434 787.156 373.437C786.433 371.984 786.072 370.712 786.072 369.622C786.072 368.168 785.711 366.715 784.989 365.261C780.295 352.906 775.962 340.37 771.99 327.652C768.018 314.934 763.504 302.215 758.449 289.497C757.727 287.68 757.005 285.5 756.283 282.957C755.56 280.049 754.658 277.506 753.574 275.326C752.491 272.782 751.227 270.602 749.783 268.785C748.339 266.968 746.533 266.06 744.367 266.06C743.645 266.786 742.922 267.331 742.2 267.695C741.478 268.058 740.756 268.603 740.034 269.33C737.145 272.964 734.978 277.324 733.534 282.411C732.451 287.499 731.007 292.404 729.201 297.128C724.868 307.303 720.896 317.659 717.285 328.197C714.035 338.735 710.425 349.273 706.453 359.811C705.008 363.444 703.744 367.078 702.661 370.712C701.578 373.982 700.495 377.616 699.411 381.613C698.328 384.52 698.509 387.791 699.953 391.424C701.758 393.968 704.647 395.421 708.619 395.785C712.952 396.148 717.285 396.33 721.618 396.33H773.615C777.587 396.33 781.017 395.967 783.906 395.24Z" fill="#ECE6CE" fill-opacity="0.92"/>
</svg>
