<svg width="666" height="202" viewBox="0 0 666 202" fill="none" xmlns="http://www.w3.org/2000/svg">
<path d="M40.5733 47.2805C50.7698 47.1377 59.3376 48.352 66.2769 50.9235C73.2161 53.3522 78.5976 57.7095 82.4213 63.9954C83.4126 65.5669 84.1915 67.2098 84.7579 68.9241C85.3244 70.4956 85.8909 72.2814 86.4573 74.2814C86.7406 75.2815 86.8114 76.3529 86.6698 77.4958C86.5282 78.4959 86.3157 79.2816 86.0325 79.8531C85.7493 80.1388 85.3952 80.4245 84.9704 80.7102C84.5455 80.8531 84.1915 81.0674 83.9082 81.3531C83.2001 81.6388 82.4921 81.7103 81.784 81.5674C81.0759 81.4245 80.3678 81.4245 79.6597 81.5674C78.5268 81.8531 77.0398 81.9246 75.1988 81.7817C73.3577 81.496 72.0832 81.1388 71.3751 80.7102C70.2422 79.9959 69.4633 79.0673 69.0384 77.9244C68.7552 76.6387 68.2595 75.4243 67.5514 74.2814C66.2769 71.9956 64.5067 69.9241 62.2408 68.0669C60.683 66.924 58.9836 66.0669 57.1426 65.4954C55.3015 64.924 53.3189 64.3525 51.1946 63.7811C50.4866 63.4954 49.7785 63.4239 49.0704 63.5668C48.3623 63.5668 47.6542 63.4954 46.9461 63.3525C46.0964 63.0668 45.0343 62.9239 43.7597 62.9239C42.4852 62.9239 41.4231 63.0668 40.5733 63.3525H39.2988C38.5907 63.4954 37.8826 63.6382 37.1745 63.7811C36.4664 63.7811 35.7584 63.8525 35.0503 63.9954C31.3682 64.8525 28.3235 66.0669 25.916 67.6384C23.5085 69.2098 21.8799 71.8528 21.0302 75.5672C20.7469 76.5672 20.6761 77.5673 20.8177 78.5673C21.101 79.5673 21.3842 80.4245 21.6674 81.1388C22.5171 83.2817 23.5085 84.8532 24.6414 85.8533C25.916 86.7104 27.4738 87.7105 29.3148 88.8534C31.5807 90.282 34.1298 91.3535 36.9621 92.0678C39.7945 92.6392 42.6268 93.3535 45.4591 94.2107C47.3002 94.7821 49.1412 95.2107 50.9822 95.4965C52.8232 95.7822 54.6643 96.2108 56.5053 96.7822C59.4793 97.6394 62.3824 98.4966 65.2148 99.3537C68.0471 100.068 70.8794 100.997 73.7118 102.14C74.4199 102.425 75.128 102.711 75.8361 102.997C76.5441 103.282 77.2522 103.64 77.9603 104.068C80.7927 105.783 83.271 107.711 85.3952 109.854C87.5195 111.997 89.2897 114.711 90.7059 117.997C90.9891 118.997 91.2723 120.354 91.5556 122.069C91.8388 123.069 91.9804 124.14 91.9804 125.283C92.122 126.283 92.1928 127.426 92.1928 128.712V130.855C91.9096 131.855 91.768 132.855 91.768 133.855C91.768 134.855 91.6264 135.855 91.3431 136.855C90.9183 138.426 90.4226 139.927 89.8562 141.355C89.2897 142.784 88.6524 144.07 87.9443 145.212C85.6785 148.927 82.7753 151.927 79.2349 154.213C75.6944 156.356 71.7292 158.213 67.339 159.784C66.0645 160.213 64.7191 160.499 63.3029 160.642C62.0284 160.927 60.7538 161.284 59.4793 161.713C58.0631 161.999 56.6469 162.142 55.2307 162.142C53.8146 162.142 52.3984 162.284 50.9822 162.57H48.858C48.1499 162.713 47.1585 162.784 45.884 162.784C44.6094 162.784 43.6181 162.713 42.91 162.57H40.5733C39.7236 162.284 38.8031 162.142 37.8118 162.142C36.8205 162.284 35.9708 162.213 35.2627 161.927C34.5546 161.784 33.6341 161.713 32.5012 161.713C31.3682 161.427 30.2353 161.142 29.1024 160.856C28.111 160.713 27.0489 160.427 25.916 159.999C21.5258 158.57 17.7022 156.784 14.445 154.641C11.1878 152.498 8.35542 149.713 5.94793 146.284C4.67337 144.427 3.61124 142.498 2.76154 140.498C1.91183 138.498 1.13294 136.284 0.424852 133.855C0.141617 132.998 0 131.998 0 130.855C0.141617 129.569 0.354043 128.569 0.637277 127.855C1.06213 127.283 1.77022 126.712 2.76154 126.14C3.46962 125.855 4.46094 125.712 5.7355 125.712C7.01006 125.569 8.28461 125.569 9.55917 125.712C10.8337 125.855 12.0375 126.069 13.1704 126.355C14.445 126.497 15.2947 126.712 15.7195 126.998C16.7108 127.712 17.3481 128.783 17.6314 130.212C18.0562 131.498 18.5519 132.712 19.1183 133.855C20.5345 136.998 22.4463 139.427 24.8538 141.141C26.5532 142.427 28.4651 143.427 30.5893 144.141C32.7136 144.855 34.9795 145.57 37.387 146.284L41.8479 146.927H43.1225C44.1138 147.212 45.3883 147.355 46.9461 147.355C48.6455 147.355 50.0617 147.212 51.1946 146.927C52.186 146.927 52.9649 146.855 53.5313 146.712C54.381 146.57 55.2307 146.498 56.0804 146.498C56.9301 146.355 57.709 146.212 58.4171 146.07C62.524 144.927 65.7812 143.427 68.1887 141.569C70.5962 139.712 72.2956 136.569 73.2869 132.141C73.5702 131.426 73.641 130.64 73.4994 129.783C73.3577 128.926 73.2161 128.283 73.0745 127.855C72.3664 125.14 71.3751 123.14 70.1005 121.854C68.826 120.426 67.1974 119.14 65.2148 117.997C63.9402 117.14 62.524 116.426 60.9662 115.854C59.4085 115.283 57.8507 114.711 56.2929 114.14C55.868 113.997 55.4432 113.926 55.0183 113.926C54.7351 113.926 54.381 113.783 53.9562 113.497C49.1412 111.926 44.1138 110.783 38.8739 110.068C33.7757 109.211 28.9607 107.854 24.429 105.997C23.0128 105.425 21.6674 104.925 20.3929 104.497C19.1183 104.068 17.9146 103.497 16.7816 102.782C14.0909 101.211 11.6126 99.4252 9.34674 97.4251C7.08086 95.425 5.31065 92.9249 4.03609 89.9248C3.61124 88.9248 3.2572 87.9248 2.97396 86.9247C2.83235 85.9247 2.61992 84.8532 2.33669 83.7103C1.91183 81.996 1.77022 80.0673 1.91183 77.9244C2.05345 75.6386 2.26588 73.71 2.54911 72.1385C2.83235 71.4242 2.97396 70.8527 2.97396 70.4242C3.11558 69.8527 3.32801 69.2813 3.61124 68.7098C4.8858 65.424 6.5852 62.5668 8.70946 60.1381C10.9753 57.7095 13.5244 55.5665 16.3568 53.7093C18.4811 52.4236 20.8177 51.4235 23.3668 50.7092C25.916 49.8521 28.6067 49.0663 31.439 48.352C32.4304 48.2091 33.3509 48.0663 34.2006 47.9234C35.1919 47.7805 36.254 47.6377 37.387 47.4948C37.8118 47.352 38.3783 47.352 39.0864 47.4948C39.7945 47.6377 40.2901 47.5663 40.5733 47.2805Z" fill="#ECE6CE" fill-opacity="0.92"/>
<path d="M190.758 152.284C191.183 154.57 190.971 156.499 190.121 158.07C189.271 159.499 188.139 160.57 186.722 161.284C186.014 161.57 185.235 161.713 184.386 161.713C183.678 161.713 182.899 161.856 182.049 162.142C178.933 162.856 175.818 162.642 172.702 161.499C169.728 160.499 167.675 159.213 166.542 157.641C165.834 156.641 165.197 155.498 164.63 154.213C164.064 152.784 163.356 151.641 162.506 150.784C162.223 150.498 161.869 150.213 161.444 149.927C161.16 149.641 160.736 149.57 160.169 149.713C158.611 150.141 157.124 150.927 155.708 152.07C154.434 153.213 153.159 154.213 151.885 155.07C150.043 156.213 148.061 157.284 145.937 158.284C143.812 159.141 141.546 159.927 139.139 160.642C137.723 161.07 136.165 161.356 134.466 161.499C132.908 161.642 131.35 161.856 129.792 162.142C129.084 162.284 128.447 162.356 127.88 162.356C127.456 162.356 126.96 162.356 126.393 162.356C124.836 162.642 123.349 162.642 121.932 162.356H120.021C119.313 162.213 118.604 162.142 117.896 162.142C117.188 162.142 116.551 161.999 115.985 161.713C115.418 161.57 114.922 161.499 114.498 161.499C114.214 161.642 113.86 161.642 113.435 161.499C112.302 161.213 111.17 160.927 110.037 160.642C108.904 160.499 107.842 160.213 106.85 159.784C102.602 157.927 99.1321 155.856 96.4414 153.57C93.8923 151.141 91.768 147.784 90.0686 143.498C88.794 140.355 88.1567 136.569 88.1567 132.141V127.64C88.2984 126.926 88.3692 126.212 88.3692 125.497C88.5108 124.64 88.6524 123.783 88.794 122.926C89.3605 121.354 89.927 119.783 90.4934 118.212C91.0599 116.64 91.768 115.211 92.6177 113.926C95.1668 109.783 98.6364 106.711 103.027 104.711C107.417 102.711 112.232 100.925 117.472 99.3537C119.454 98.7823 121.508 98.3537 123.632 98.068C125.756 97.7822 127.88 97.4251 130.005 96.9965C130.996 96.7108 131.916 96.5679 132.766 96.5679C133.758 96.5679 134.82 96.4251 135.953 96.1393C136.944 95.8536 137.935 95.7108 138.927 95.7108C139.918 95.5679 140.98 95.3536 142.113 95.0679C145.653 94.2107 148.981 93.4964 152.097 92.9249C155.213 92.2106 157.691 90.5677 159.532 87.9962C160.382 86.8533 161.09 85.4247 161.656 83.7103C162.223 81.8531 162.223 79.853 161.656 77.7101C160.806 74.2814 159.532 71.5671 157.832 69.567C156.275 67.5669 154.009 65.9954 151.035 64.8525C149.335 64.1382 147.282 63.6382 144.874 63.3525C142.609 63.0668 140.201 62.9239 137.652 62.9239C135.103 62.9239 132.625 63.0668 130.217 63.3525C127.81 63.6382 125.756 64.0668 124.057 64.6383C121.649 65.4954 119.313 66.7098 117.047 68.2812C115.914 69.1384 114.852 70.2813 113.86 71.7099C113.011 72.9957 112.232 74.4243 111.524 75.9958C111.099 77.1387 110.674 78.353 110.249 79.6388C109.966 80.9245 109.329 81.9245 108.337 82.6389C107.771 83.0674 106.779 83.4246 105.363 83.7103C104.089 83.8532 102.743 83.9246 101.327 83.9246C99.911 83.9246 98.4948 83.8532 97.0786 83.7103C95.8041 83.4246 94.8836 83.0674 94.3171 82.6389C93.7506 82.2103 93.3258 81.496 93.0425 80.4959C92.7593 79.4959 92.7593 78.4244 93.0425 77.2815C93.4674 75.4243 93.8923 73.71 94.3171 72.1385C94.8836 70.4242 95.5208 68.7812 96.2289 67.2098C98.9197 62.2096 102.318 58.3523 106.425 55.638C110.532 52.7807 115.63 50.4949 121.72 48.7806C123.136 48.4949 124.552 48.2806 125.969 48.1377C127.526 47.9948 129.084 47.7805 130.642 47.4948C131.208 47.352 132.129 47.352 133.403 47.4948C134.678 47.4948 135.457 47.352 135.74 47.0662C145.653 46.9234 154.292 48.0663 161.656 50.4949C169.02 52.9236 174.189 57.5666 177.163 64.424C178.438 67.2812 179.146 70.6385 179.287 74.4957C179.571 78.2101 179.712 82.1388 179.712 86.2818V133.641C179.712 135.641 179.783 137.569 179.925 139.426C180.066 141.284 180.491 142.784 181.199 143.927C181.907 144.927 182.828 145.641 183.961 146.07C185.235 146.641 186.439 147.07 187.572 147.355C188.705 147.498 189.555 148.141 190.121 149.284C190.404 149.713 190.546 150.141 190.546 150.57C190.546 150.998 190.617 151.57 190.758 152.284ZM160.382 128.498C161.231 126.498 161.656 124.212 161.656 121.64C161.798 118.926 161.869 116.14 161.869 113.283C161.869 111.711 161.798 110.283 161.656 108.997C161.514 107.711 160.948 106.711 159.957 105.997C159.532 105.711 158.541 105.568 156.983 105.568C156.7 105.854 156.204 105.997 155.496 105.997C154.788 105.997 154.15 106.14 153.584 106.425C152.451 106.711 151.176 106.997 149.76 107.283C148.344 107.568 146.928 107.854 145.512 108.14C145.087 108.14 144.591 108.211 144.025 108.354C143.6 108.354 143.104 108.354 142.538 108.354C140.414 108.925 138.077 109.283 135.528 109.425C133.12 109.425 130.854 109.711 128.73 110.283C127.597 110.568 126.535 110.854 125.544 111.14C124.694 111.283 123.703 111.497 122.57 111.783C120.304 112.497 118.18 113.426 116.197 114.569C114.214 115.569 112.515 116.854 111.099 118.426C109.683 119.997 108.62 121.926 107.912 124.212C107.204 126.355 106.921 128.998 107.063 132.141C107.063 133.569 107.275 134.926 107.7 136.212C108.266 137.355 108.904 138.426 109.612 139.426C110.745 140.998 112.232 142.355 114.073 143.498C115.914 144.498 117.896 145.355 120.021 146.07C120.729 146.212 121.437 146.284 122.145 146.284C122.853 146.284 123.561 146.355 124.269 146.498C125.26 146.784 126.464 146.998 127.88 147.141C129.438 147.141 130.713 146.998 131.704 146.712C132.554 146.427 133.403 146.355 134.253 146.498C135.103 146.498 135.953 146.355 136.802 146.07C137.935 145.784 138.997 145.57 139.989 145.427C141.122 145.284 142.184 144.998 143.175 144.57C147.282 142.855 150.752 140.784 153.584 138.355C156.558 135.926 158.824 132.641 160.382 128.498Z" fill="#ECE6CE" fill-opacity="0.92"/>
<path d="M240.489 47.2805C245.871 47.1377 250.403 47.7091 254.085 48.9949C257.908 50.2806 261.378 52.1378 264.493 54.5665C265.626 55.2808 266.547 56.2808 267.255 57.5666C268.105 58.7095 269.025 59.7809 270.017 60.781C270.3 61.0667 270.725 61.4239 271.291 61.8525C271.858 62.281 272.566 62.4239 273.415 62.281C274.832 61.8524 276.035 60.9953 277.027 59.7095C278.16 58.2809 279.292 57.2094 280.425 56.4951C282.408 54.9236 284.462 53.5665 286.586 52.4236C288.71 51.1378 291.047 50.0663 293.596 49.2092C294.729 48.7806 295.933 48.4949 297.207 48.352C298.623 48.0663 299.969 47.7805 301.243 47.4948C301.951 47.352 302.589 47.2805 303.155 47.2805C303.863 47.2805 304.571 47.2805 305.279 47.2805C305.987 46.9948 306.979 46.9234 308.253 47.0662C309.528 47.0662 310.448 47.1377 311.015 47.2805C311.723 47.4234 312.785 47.4948 314.201 47.4948C315.476 47.7805 316.679 48.0663 317.812 48.352C319.087 48.4949 320.291 48.7806 321.424 49.2092C322.132 49.4949 322.769 49.7092 323.335 49.852C324.044 49.852 324.752 49.9949 325.46 50.2806C332.541 53.4236 337.426 58.2809 340.117 64.8525C340.684 65.9954 341.108 67.2812 341.392 68.7098C341.675 69.9956 341.958 71.4242 342.241 72.9957C342.525 73.4243 342.595 73.9243 342.454 74.4957C342.454 74.9243 342.525 75.3529 342.666 75.7815V77.7101C342.808 78.2816 342.808 78.9245 342.666 79.6388C342.666 80.3531 342.666 81.0674 342.666 81.7817V144.57C342.666 146.855 342.666 149.57 342.666 152.713C342.808 155.856 342.241 157.927 340.967 158.927C340.4 159.356 339.48 159.713 338.205 159.999C336.931 160.141 335.585 160.213 334.169 160.213C332.753 160.213 331.337 160.141 329.921 159.999C328.646 159.856 327.726 159.57 327.159 159.141C326.309 158.713 325.743 157.856 325.46 156.57C325.176 155.713 325.106 154.856 325.247 153.998C325.389 152.998 325.318 152.07 325.035 151.213C324.893 150.498 324.822 149.713 324.822 148.855C324.964 147.855 325.035 146.927 325.035 146.07V95.4965C325.035 90.782 324.893 86.3533 324.61 82.2103C324.468 77.9244 323.477 74.3529 321.636 71.4956C319.512 68.0669 316.255 65.5669 311.864 63.9954C311.015 63.7097 310.094 63.5668 309.103 63.5668C308.253 63.4239 307.333 63.2096 306.341 62.9239C305.775 62.7811 304.854 62.7811 303.58 62.9239C302.305 62.9239 301.456 62.9953 301.031 63.1382C300.323 63.2811 299.615 63.3525 298.906 63.3525C298.198 63.2096 297.49 63.2811 296.782 63.5668C294.8 63.9954 292.888 64.5668 291.047 65.2811C283.683 68.4241 278.726 73.9243 276.177 81.7817C275.469 84.2103 275.044 86.9962 274.902 90.1391C274.902 93.2821 274.902 96.4965 274.902 99.7823V148.641C274.902 150.355 274.902 152.141 274.902 153.998C274.902 155.713 274.548 157.07 273.84 158.07C273.132 159.213 271.928 159.856 270.229 159.999C268.53 160.141 266.759 160.213 264.918 160.213C262.511 160.213 260.741 159.927 259.608 159.356C258.333 158.641 257.554 157.499 257.271 155.927C257.129 154.213 257.059 152.356 257.059 150.355V94.6393C257.059 90.0677 256.917 85.8533 256.634 81.996C256.35 77.9958 255.359 74.5672 253.66 71.7099C252.102 69.1384 250.332 67.2812 248.349 66.1383C246.366 64.8525 243.676 63.8525 240.277 63.1382C239.71 62.9953 239.073 62.9239 238.365 62.9239C237.799 62.9239 237.161 62.9239 236.453 62.9239C233.338 62.9239 230.576 63.2811 228.169 63.9954C225.903 64.7097 223.849 65.6383 222.008 66.7812C214.786 71.2099 209.971 77.853 207.563 86.7104C206.997 88.5676 206.714 90.7106 206.714 93.1392C206.855 95.425 206.926 97.7108 206.926 99.9966V147.784C206.926 149.641 206.926 151.57 206.926 153.57C206.926 155.57 206.501 157.141 205.651 158.284C204.943 159.284 203.881 159.856 202.465 159.999C201.049 160.141 199.562 160.213 198.004 160.213H194.818C193.968 159.927 193.118 159.713 192.269 159.57C191.561 159.427 190.923 158.999 190.357 158.284C189.649 157.427 189.295 156.356 189.295 155.07C189.295 153.641 189.295 152.141 189.295 150.57V59.4952C189.295 58.0666 189.295 56.7094 189.295 55.4237C189.295 53.995 189.578 52.8521 190.144 51.995C190.569 51.1378 191.207 50.5664 192.056 50.2806C193.189 49.852 194.959 49.6378 197.367 49.6378C199.916 49.6378 201.757 49.852 202.89 50.2806C204.023 50.8521 204.802 51.5664 205.227 52.4236C205.51 53.1379 205.651 53.995 205.651 54.9951C205.793 55.9951 205.935 56.9237 206.076 57.7809C206.218 58.6381 206.501 59.3524 206.926 59.9238C207.351 60.4953 208.059 60.781 209.05 60.781C209.334 60.4953 209.617 60.3524 209.9 60.3524C210.325 60.3524 210.679 60.2095 210.962 59.9238C211.812 59.2095 212.591 58.4952 213.299 57.7809C214.149 57.0666 214.998 56.3523 215.848 55.638C218.964 53.3522 222.504 51.3521 226.469 49.6378C227.885 49.0663 229.302 48.7091 230.718 48.5663C232.134 48.2806 233.621 47.9234 235.179 47.4948C236.028 47.4948 236.878 47.4948 237.728 47.4948C238.719 47.352 239.64 47.2805 240.489 47.2805Z" fill="#ECE6CE" fill-opacity="0.92"/>
<path d="M455.366 102.14C455.508 102.854 455.579 103.782 455.579 104.925C455.579 106.068 455.508 106.997 455.366 107.711C455.083 108.425 455.012 109.14 455.154 109.854C455.296 110.426 455.296 110.997 455.154 111.568C455.154 112.568 455.083 113.354 454.942 113.926C454.658 115.211 454.446 116.497 454.304 117.783C454.304 119.069 454.163 120.354 453.879 121.64C453.596 122.783 453.313 123.926 453.03 125.069C452.747 126.069 452.393 127.14 451.968 128.283C450.268 133.569 447.932 138.355 444.958 142.641C444.108 143.927 443.187 145.212 442.196 146.498C441.205 147.641 440.143 148.713 439.01 149.713L437.948 150.784C436.956 151.498 436.036 152.213 435.186 152.927C434.336 153.641 433.345 154.356 432.212 155.07C430.654 156.213 428.884 157.213 426.901 158.07C425.06 158.784 423.149 159.499 421.166 160.213C420.033 160.499 418.9 160.713 417.767 160.856C416.776 160.999 415.714 161.213 414.581 161.499C414.297 161.499 414.014 161.499 413.731 161.499C413.589 161.642 413.377 161.713 413.094 161.713C411.819 161.999 409.907 162.142 407.358 162.142C404.951 162.284 403.039 162.213 401.623 161.927H400.561C399.569 161.784 398.649 161.642 397.799 161.499C396.949 161.499 396.1 161.356 395.25 161.07C392.842 160.356 390.577 159.713 388.452 159.141C386.328 158.57 384.345 157.713 382.504 156.57C380.239 155.284 378.256 153.927 376.556 152.498C375.99 152.07 375.14 151.498 374.007 150.784C372.874 149.927 371.812 149.855 370.821 150.57C370.254 150.998 369.971 151.57 369.971 152.284C369.971 152.998 369.83 153.784 369.546 154.641C369.405 155.07 369.405 155.57 369.546 156.141C369.688 156.57 369.688 157.07 369.546 157.641C369.263 158.499 369.122 159.427 369.122 160.427C369.263 161.57 369.334 162.57 369.334 163.427V189.142C369.334 191.142 369.334 193.214 369.334 195.357C369.334 197.16 369.478 198.962 369.079 200.382C368.937 200.885 368.514 201.242 368.017 201.404C366.657 201.845 365.815 202 364.491 202C362.481 202 361.545 202 359.987 202H356.588C355.111 202 354.441 202 353.771 202C352.431 202 352.127 201.857 351.703 201.143C350.995 200.143 351.49 197.071 351.49 194.928C351.632 192.785 351.703 190.928 351.703 189.357V60.781C351.703 59.0666 351.703 57.3523 351.703 55.638C351.844 53.7807 352.269 52.2807 352.977 51.1378C353.402 50.5664 354.323 50.1378 355.739 49.852C357.297 49.4235 358.925 49.2806 360.624 49.4235C362.324 49.4235 363.882 49.6378 365.298 50.0663C366.856 50.3521 367.847 50.7807 368.272 51.3521C368.838 52.0664 369.122 52.9236 369.122 53.9236C369.263 54.9236 369.546 55.9237 369.971 56.9237C370.254 57.3523 370.467 57.7094 370.609 57.9952C370.892 58.138 371.175 58.3523 371.458 58.6381C373.016 58.7809 374.291 58.2809 375.282 57.138C376.415 55.9951 377.477 55.0665 378.468 54.3522C382.15 51.7807 386.54 49.7806 391.639 48.352C392.913 48.0663 394.188 47.852 395.462 47.7091C396.879 47.5663 398.295 47.352 399.711 47.0662C400.277 46.9234 400.985 46.9234 401.835 47.0662C402.685 47.2091 403.251 47.1377 403.535 46.8519C409.624 46.7091 415.006 47.352 419.679 48.7806C424.352 50.0663 428.53 51.9235 432.212 54.3522C432.92 54.9236 433.628 55.4951 434.336 56.0665C435.044 56.4951 435.752 56.9951 436.461 57.5666C436.744 57.8523 436.956 58.138 437.098 58.4238C437.381 58.5666 437.664 58.7809 437.948 59.0666C438.656 59.7809 439.435 60.5667 440.284 61.4239C441.134 62.281 441.913 63.1382 442.621 63.9954C444.32 66.424 446.091 69.067 447.932 71.9242C449.064 73.7814 449.985 75.8529 450.693 78.1387C451.543 80.4245 452.322 82.7103 453.03 84.9961C453.313 86.139 453.525 87.3533 453.667 88.6391C453.95 89.9248 454.234 91.1392 454.517 92.2821C454.517 92.8535 454.517 93.425 454.517 93.9964C454.658 94.425 454.729 94.8536 454.729 95.2822C455.012 95.9965 455.083 96.7822 454.942 97.6394C454.942 98.4966 455.083 99.2823 455.366 99.9966V102.14ZM436.461 107.925C436.744 107.211 436.815 106.354 436.673 105.354C436.531 104.211 436.461 103.211 436.461 102.354C436.461 99.9252 436.319 97.6394 436.036 95.4965C435.894 93.3535 435.469 91.282 434.761 89.282C434.478 88.4248 434.195 87.5676 433.911 86.7104C433.77 85.7104 433.487 84.7818 433.062 83.9246C431.504 80.0673 429.026 76.3529 425.627 72.7814C422.37 69.2098 419.254 66.7812 416.28 65.4954C415.147 64.924 413.943 64.4954 412.669 64.2097C411.536 63.9239 410.332 63.5668 409.058 63.1382C407.783 62.8525 406.296 62.7096 404.597 62.7096C403.039 62.7096 401.481 62.7096 399.923 62.7096C399.64 62.9953 399.074 63.1382 398.224 63.1382C397.516 62.9953 396.879 62.9953 396.312 63.1382C395.038 63.4239 393.763 63.7097 392.488 63.9954C391.355 64.2811 390.222 64.7097 389.09 65.2811C384.558 67.2812 380.805 70.2099 377.831 74.0671C374.999 77.7816 372.804 82.1389 371.246 87.139C370.679 88.7105 370.254 90.282 369.971 91.8535C369.83 93.425 369.617 94.9964 369.334 96.5679C369.192 97.1394 369.122 97.7108 369.122 98.2823C369.122 98.7108 369.051 99.2109 368.909 99.7823V101.497C368.767 102.211 368.697 103.282 368.697 104.711C368.697 105.997 368.767 106.997 368.909 107.711V109.425C369.051 109.997 369.122 110.568 369.122 111.14C369.122 111.711 369.192 112.211 369.334 112.64C369.476 113.068 369.546 113.497 369.546 113.926C369.546 114.354 369.617 114.854 369.759 115.426C370.042 116.569 370.254 117.711 370.396 118.854C370.679 119.997 370.963 121.14 371.246 122.283C372.804 127.14 374.928 131.426 377.619 135.141C380.451 138.712 384.133 141.498 388.665 143.498C391.355 144.641 394.117 145.498 396.949 146.07C397.516 146.355 398.082 146.498 398.649 146.498C399.215 146.355 399.782 146.355 400.348 146.498H402.048C403.039 146.784 404.03 146.784 405.022 146.498H406.721C408.279 146.212 409.766 145.998 411.182 145.855C412.598 145.712 414.014 145.355 415.43 144.784C419.821 142.927 423.361 140.498 426.052 137.498C428.884 134.355 431.221 130.569 433.062 126.14C433.77 124.14 434.265 122.14 434.549 120.14C434.974 117.997 435.469 115.783 436.036 113.497C436.177 112.783 436.248 112.14 436.248 111.568C436.248 110.997 436.319 110.354 436.461 109.64V107.925Z" fill="#ECE6CE" fill-opacity="0.92"/>
<path d="M464.896 0C466.737 0 468.649 0 470.631 0C472.755 0 474.313 0.500019 475.305 1.50006C476.013 2.50009 476.561 11.4936 476.561 13.208C476.703 14.7794 476.773 16.4224 476.773 18.1367V147.998C476.773 149.713 476.773 151.57 476.773 153.57C476.773 155.57 476.419 157.141 475.711 158.284C475.286 158.999 474.649 159.427 473.799 159.57C473.091 159.713 472.171 159.927 471.038 160.213H468.064C466.506 160.213 465.019 160.213 463.603 160.213C462.187 160.07 461.125 159.57 460.417 158.713C459.708 157.57 459.284 156.141 459.142 154.427C459.142 152.713 459.142 150.927 459.142 149.07V19.2082C459.142 17.6367 459.071 15.9938 458.93 14.2794C458.93 12.4222 459.089 3.35726 459.797 2.35723C460.364 1.50006 461.426 0.785752 462.984 0.214303C463.267 0.0714343 463.55 0.0714343 463.834 0.214303C464.258 0.214303 464.612 0.142869 464.896 0Z" fill="#ECE6CE" fill-opacity="0.92"/>
<path d="M580.582 100.639C580.865 102.068 580.865 103.711 580.582 105.568C580.44 107.283 580.015 108.497 579.307 109.211C578.599 109.783 577.537 110.211 576.121 110.497C574.846 110.64 573.359 110.711 571.66 110.711C569.96 110.711 568.261 110.711 566.561 110.711C564.862 110.568 563.375 110.497 562.101 110.497H507.719C506.587 110.497 505.454 110.568 504.321 110.711C503.188 110.711 502.267 110.926 501.559 111.354C500.993 111.64 500.426 112.211 499.86 113.068C499.576 113.497 499.293 114.14 499.01 114.997C498.727 115.711 498.727 116.426 499.01 117.14C499.152 117.854 499.222 118.497 499.222 119.069C499.222 119.64 499.293 120.212 499.435 120.783C499.718 121.926 500.001 123.14 500.285 124.426C500.568 125.569 500.993 126.712 501.559 127.855C504.816 135.569 510.198 141.069 517.703 144.355C518.553 144.784 519.474 145.141 520.465 145.427C521.456 145.712 522.448 145.998 523.439 146.284C523.864 146.427 524.572 146.498 525.563 146.498C527.546 147.07 530.166 147.355 533.423 147.355C536.68 147.355 539.3 147.07 541.283 146.498C543.265 145.927 545.036 145.355 546.593 144.784C548.293 144.07 549.851 143.212 551.267 142.212C552.825 141.212 554.17 140.069 555.303 138.784C556.436 137.355 557.427 135.855 558.277 134.283C559.127 132.855 559.835 131.355 560.401 129.783C561.109 128.212 562.242 127.069 563.8 126.355C564.366 126.069 565.287 125.855 566.561 125.712C567.836 125.569 569.111 125.569 570.385 125.712C571.66 125.712 572.863 125.783 573.996 125.926C575.129 126.069 575.908 126.355 576.333 126.783C577.749 127.783 578.103 129.426 577.395 131.712C576.262 135.569 574.775 138.998 572.934 141.998C570.102 146.57 566.845 150.355 563.163 153.356C559.622 156.213 555.09 158.57 549.567 160.427C548.151 160.999 546.735 161.356 545.319 161.499C543.903 161.784 542.416 162.07 540.858 162.356C540.15 162.499 539.442 162.57 538.734 162.57C538.167 162.57 537.53 162.642 536.822 162.784H534.698C533.989 162.927 533.14 162.999 532.148 162.999C531.299 162.999 530.591 162.927 530.024 162.784H528.112C527.404 162.642 526.767 162.57 526.201 162.57C525.634 162.57 525.068 162.499 524.501 162.356C523.793 162.213 523.014 162.07 522.164 161.927C521.315 161.927 520.536 161.856 519.828 161.713C518.553 161.427 517.279 161.07 516.004 160.642C514.73 160.356 513.526 159.999 512.393 159.57C511.826 159.284 511.331 159.141 510.906 159.141C510.481 158.999 509.985 158.784 509.419 158.499C507.295 157.499 505.029 156.284 502.621 154.856C498.514 152.141 494.974 148.855 492 144.998C489.168 140.998 486.76 136.569 484.777 131.712C484.069 130.14 483.503 128.498 483.078 126.783C482.795 125.069 482.37 123.355 481.804 121.64C481.662 121.069 481.591 120.569 481.591 120.14C481.591 119.712 481.52 119.14 481.379 118.426C481.095 117.283 480.883 116.069 480.741 114.783C480.6 113.497 480.387 112.211 480.104 110.926V107.925C479.963 107.354 479.821 106.568 479.679 105.568C479.679 104.425 479.75 103.497 479.892 102.782V100.425C480.175 99.7109 480.246 98.9966 480.104 98.2823C480.104 97.4251 480.175 96.6394 480.317 95.925C480.883 93.6393 481.308 91.3535 481.591 89.0677C482.016 86.7819 482.653 84.6389 483.503 82.6389C484.211 81.0674 484.848 79.4959 485.415 77.9244C486.123 76.2101 486.902 74.5672 487.751 72.9957C490.867 67.9955 494.407 63.7097 498.373 60.1381C502.338 56.4237 507.224 53.3522 513.03 50.9235C514.73 50.2092 516.429 49.7092 518.128 49.4235C519.969 48.9949 521.881 48.5663 523.864 48.1377C524.572 47.9948 525.209 47.9234 525.776 47.9234C526.342 47.7805 526.979 47.7091 527.687 47.7091C527.971 47.5663 528.325 47.5663 528.75 47.7091C529.175 47.852 529.529 47.7805 529.812 47.4948C535.76 47.352 540.929 47.9948 545.319 49.4235C549.709 50.7092 553.674 52.495 557.215 54.7808C557.923 55.0665 558.489 55.4951 558.914 56.0665C559.339 56.4951 559.835 56.8523 560.401 57.138C561.534 57.9952 562.667 58.9952 563.8 60.1381C565.074 61.281 566.137 62.4239 566.986 63.5668C569.252 66.5669 571.164 69.4241 572.722 72.1385C573.713 73.71 574.492 75.4243 575.058 77.2815C575.625 79.1387 576.262 80.9959 576.97 82.8531C577.678 84.7104 578.174 86.639 578.457 88.6391C578.882 90.6392 579.378 92.6392 579.944 94.6393C580.086 95.6393 580.157 96.6393 580.157 97.6394C580.298 98.6394 580.44 99.6395 580.582 100.639ZM559.976 93.3535C560.401 92.7821 560.755 92.0678 561.038 91.2106C561.322 90.2106 561.322 89.2105 561.038 88.2105C560.189 85.0675 558.985 82.1388 557.427 79.4245C555.444 76.1386 553.249 73.3528 550.842 71.067C548.434 68.7813 545.319 66.8526 541.495 65.2811C540.504 64.9954 539.513 64.7811 538.521 64.6383C537.53 64.3525 536.468 64.0668 535.335 63.7811C534.202 63.4954 532.998 63.3525 531.724 63.3525C530.449 63.3525 529.245 63.3525 528.112 63.3525C527.687 63.6382 527.192 63.7811 526.625 63.7811C526.059 63.6382 525.563 63.6382 525.138 63.7811C524.005 64.0668 522.873 64.3525 521.74 64.6383C520.748 64.7811 519.757 64.9954 518.766 65.2811C514.659 66.9955 511.331 69.1384 508.782 71.7099C506.374 74.2814 504.179 77.4958 502.196 81.3531C501.772 82.0674 501.347 82.996 500.922 84.1389C500.497 85.1389 500.143 86.2819 499.86 87.5676C499.576 88.8534 499.506 90.0677 499.647 91.2106C499.789 92.3535 500.285 93.2107 501.134 93.7821C502.267 94.6393 504.179 95.0679 506.87 95.0679C509.702 94.925 512.11 94.8536 514.092 94.8536H546.381C548.505 94.8536 551.054 94.925 554.028 95.0679C557.002 95.0679 558.985 94.4964 559.976 93.3535Z" fill="#ECE6CE" fill-opacity="0.92"/>
<path d="M614.381 47.2805C624.577 47.1377 633.145 48.352 640.084 50.9235C647.023 53.3522 652.405 57.7095 656.228 63.9954C657.22 65.5669 657.999 67.2098 658.565 68.9241C659.132 70.4956 659.698 72.2814 660.265 74.2814C660.548 75.2815 660.619 76.3529 660.477 77.4958C660.335 78.4959 660.123 79.2816 659.84 79.8531C659.556 80.1388 659.202 80.4245 658.778 80.7102C658.353 80.8531 657.999 81.0674 657.715 81.3531C657.007 81.6388 656.299 81.7103 655.591 81.5674C654.883 81.4245 654.175 81.4245 653.467 81.5674C652.334 81.8531 650.847 81.9246 649.006 81.7817C647.165 81.496 645.89 81.1388 645.182 80.7102C644.049 79.9959 643.27 79.0673 642.846 77.9244C642.562 76.6387 642.067 75.4243 641.359 74.2814C640.084 71.9956 638.314 69.9241 636.048 68.0669C634.49 66.924 632.791 66.0669 630.95 65.4954C629.109 64.924 627.126 64.3525 625.002 63.7811C624.294 63.4954 623.586 63.4239 622.878 63.5668C622.169 63.5668 621.461 63.4954 620.753 63.3525C619.904 63.0668 618.841 62.9239 617.567 62.9239C616.292 62.9239 615.23 63.0668 614.381 63.3525H613.106C612.398 63.4954 611.69 63.6382 610.982 63.7811C610.274 63.7811 609.566 63.8525 608.857 63.9954C605.175 64.8525 602.131 66.0669 599.723 67.6384C597.316 69.2098 595.687 71.8528 594.837 75.5672C594.554 76.5672 594.483 77.5673 594.625 78.5673C594.908 79.5673 595.191 80.4245 595.475 81.1388C596.324 83.2817 597.316 84.8532 598.449 85.8533C599.723 86.7104 601.281 87.7105 603.122 88.8534C605.388 90.282 607.937 91.3535 610.769 92.0678C613.602 92.6392 616.434 93.3535 619.266 94.2107C621.107 94.7821 622.948 95.2107 624.789 95.4965C626.63 95.7822 628.471 96.2108 630.312 96.7822C633.286 97.6394 636.19 98.4966 639.022 99.3537C641.854 100.068 644.687 100.997 647.519 102.14C648.227 102.425 648.935 102.711 649.643 102.997C650.351 103.282 651.059 103.64 651.767 104.068C654.6 105.783 657.078 107.711 659.202 109.854C661.327 111.997 663.097 114.711 664.513 117.997C664.796 118.997 665.079 120.354 665.363 122.069C665.646 123.069 665.788 124.14 665.788 125.283C665.929 126.283 666 127.426 666 128.712V130.855C665.717 131.855 665.575 132.855 665.575 133.855C665.575 134.855 665.434 135.855 665.15 136.855C664.725 138.426 664.23 139.927 663.663 141.355C663.097 142.784 662.46 144.07 661.751 145.212C659.486 148.927 656.582 151.927 653.042 154.213C649.502 156.356 645.536 158.213 641.146 159.784C639.872 160.213 638.526 160.499 637.11 160.642C635.836 160.927 634.561 161.284 633.286 161.713C631.87 161.999 630.454 162.142 629.038 162.142C627.622 162.142 626.206 162.284 624.789 162.57H622.665C621.957 162.713 620.966 162.784 619.691 162.784C618.417 162.784 617.425 162.713 616.717 162.57H614.381C613.531 162.284 612.61 162.142 611.619 162.142C610.628 162.284 609.778 162.213 609.07 161.927C608.362 161.784 607.441 161.713 606.308 161.713C605.175 161.427 604.042 161.142 602.91 160.856C601.918 160.713 600.856 160.427 599.723 159.999C595.333 158.57 591.509 156.784 588.252 154.641C584.995 152.498 582.163 149.713 579.755 146.284C578.481 144.427 577.418 142.498 576.569 140.498C575.719 138.498 574.94 136.284 574.232 133.855C573.949 132.998 573.807 131.998 573.807 130.855C573.949 129.569 574.161 128.569 574.444 127.855C574.869 127.283 575.577 126.712 576.569 126.14C577.277 125.855 578.268 125.712 579.543 125.712C580.817 125.569 582.092 125.569 583.366 125.712C584.641 125.855 585.845 126.069 586.978 126.355C588.252 126.497 589.102 126.712 589.527 126.998C590.518 127.712 591.155 128.783 591.438 130.212C591.863 131.498 592.359 132.712 592.926 133.855C594.342 136.998 596.254 139.427 598.661 141.141C600.36 142.427 602.272 143.427 604.396 144.141C606.521 144.855 608.787 145.57 611.194 146.284L615.655 146.927H616.93C617.921 147.212 619.196 147.355 620.753 147.355C622.453 147.355 623.869 147.212 625.002 146.927C625.993 146.927 626.772 146.855 627.339 146.712C628.188 146.57 629.038 146.498 629.888 146.498C630.737 146.355 631.516 146.212 632.224 146.07C636.331 144.927 639.588 143.427 641.996 141.569C644.403 139.712 646.103 136.569 647.094 132.141C647.377 131.426 647.448 130.64 647.307 129.783C647.165 128.926 647.023 128.283 646.882 127.855C646.174 125.14 645.182 123.14 643.908 121.854C642.633 120.426 641.005 119.14 639.022 117.997C637.747 117.14 636.331 116.426 634.773 115.854C633.216 115.283 631.658 114.711 630.1 114.14C629.675 113.997 629.25 113.926 628.825 113.926C628.542 113.926 628.188 113.783 627.763 113.497C622.948 111.926 617.921 110.783 612.681 110.068C607.583 109.211 602.768 107.854 598.236 105.997C596.82 105.425 595.475 104.925 594.2 104.497C592.926 104.068 591.722 103.497 590.589 102.782C587.898 101.211 585.42 99.4252 583.154 97.4251C580.888 95.425 579.118 92.9249 577.843 89.9248C577.418 88.9248 577.064 87.9248 576.781 86.9247C576.639 85.9247 576.427 84.8532 576.144 83.7103C575.719 81.996 575.577 80.0673 575.719 77.9244C575.861 75.6386 576.073 73.71 576.356 72.1385C576.64 71.4242 576.781 70.8527 576.781 70.4242C576.923 69.8527 577.135 69.2813 577.418 68.7098C578.693 65.424 580.392 62.5668 582.517 60.1381C584.783 57.7095 587.332 55.5665 590.164 53.7093C592.288 52.4236 594.625 51.4235 597.174 50.7092C599.723 49.8521 602.414 49.0663 605.246 48.352C606.237 48.2091 607.158 48.0663 608.008 47.9234C608.999 47.7805 610.061 47.6377 611.194 47.4948C611.619 47.352 612.185 47.352 612.894 47.4948C613.602 47.6377 614.097 47.5663 614.381 47.2805Z" fill="#ECE6CE" fill-opacity="0.92"/>
</svg>
