<svg width="800" height="269" viewBox="0 0 800 269" fill="none" xmlns="http://www.w3.org/2000/svg">
<path fill-rule="evenodd" clip-rule="evenodd" d="M0 268.14V2.19113C114.984 25.3772 250.103 38.7366 394.667 38.7366C439.617 38.7366 483.654 37.445 526.457 34.9679C526.066 37.8595 525.966 43.7744 525.966 45.2269C526.107 46.9203 526.177 48.5433 526.177 50.0956V178.378V183.67C526.318 185.364 526.741 186.775 527.445 187.904C528.15 188.751 529.207 189.244 530.616 189.386H535.055H538.014C539.141 189.103 540.057 188.892 540.761 188.751C541.607 188.609 542.241 188.186 542.664 187.48C543.368 186.351 543.72 184.799 543.72 182.823V177.319V49.0372C543.72 47.3437 543.65 45.7208 543.509 44.1684C543.509 42.8053 543.156 36.7834 542.65 33.9706C635.671 27.8938 722.579 16.1987 800 0V265.949C693.255 244.424 569.156 231.368 436.257 229.608C436.4 229.453 436.508 229.268 436.567 229.058C436.878 227.954 436.855 226.617 436.832 225.231V225.23C436.828 225.042 436.825 224.852 436.823 224.662C436.82 224.476 436.819 224.289 436.819 224.102V217.963V192.561C436.819 191.714 436.748 190.726 436.607 189.597C436.607 188.609 436.748 187.692 437.03 186.845C437.171 186.281 437.171 185.787 437.03 185.364C436.889 184.799 436.889 184.305 437.03 183.882C437.312 183.035 437.453 182.259 437.453 181.553C437.453 180.848 437.735 180.283 438.298 179.86C439.285 179.154 440.341 179.225 441.469 180.071C442.596 180.777 443.441 181.341 444.005 181.765C445.696 183.176 447.669 184.517 449.923 185.787C451.755 186.916 453.728 187.763 455.841 188.327C457.955 188.892 460.21 189.527 462.605 190.232C463.45 190.515 464.296 190.656 465.141 190.656C465.987 190.797 466.903 190.938 467.889 191.079H468.946C470.355 191.361 472.257 191.432 474.653 191.291C477.189 191.291 479.091 191.15 480.359 190.867C480.641 190.867 480.853 190.797 480.994 190.656H481.839C482.966 190.373 484.023 190.162 485.009 190.021C486.137 189.88 487.264 189.668 488.391 189.386C490.364 188.68 492.266 187.974 494.098 187.269C496.071 186.422 497.832 185.434 499.382 184.305C500.509 183.599 501.496 182.894 502.341 182.188C503.187 181.483 504.103 180.777 505.089 180.071L506.146 179.013C507.273 178.025 508.33 176.967 509.316 175.838C510.303 174.568 511.218 173.297 512.064 172.027C515.023 167.794 517.348 163.066 519.039 157.844C519.462 156.715 519.814 155.657 520.096 154.669L520.941 151.282C521.223 150.012 521.364 148.742 521.364 147.472C521.505 146.201 521.716 144.931 521.998 143.661C522.139 143.097 522.209 142.321 522.209 141.333C522.35 140.768 522.35 140.204 522.209 139.639C522.068 138.934 522.139 138.228 522.421 137.522C522.562 136.817 522.632 135.899 522.632 134.77C522.632 133.641 522.562 132.724 522.421 132.018V129.902C522.139 129.196 521.998 128.42 521.998 127.573C522.139 126.726 522.068 125.95 521.787 125.244C521.787 124.821 521.716 124.398 521.575 123.974V122.281C521.293 121.152 521.012 119.952 520.73 118.682C520.589 117.412 520.377 116.212 520.096 115.083C519.391 112.826 518.616 110.568 517.771 108.31C517.066 106.052 516.15 104.005 515.023 102.171C513.191 99.3481 511.43 96.7373 509.739 94.3382C509.034 93.4914 508.259 92.6447 507.414 91.7979L505.089 89.4694C504.807 89.1871 504.525 88.9754 504.243 88.8343C504.103 88.5521 503.891 88.2698 503.609 87.9876C502.905 87.4231 502.2 86.9291 501.496 86.5058L499.382 84.8123C495.718 82.4132 491.562 80.5785 486.912 79.3084C482.262 77.8972 476.907 77.2621 470.848 77.4032C470.566 77.6855 470.003 77.7561 469.157 77.6149C468.312 77.4738 467.607 77.4738 467.044 77.6149C465.635 77.8972 464.225 78.1089 462.816 78.25C461.548 78.3911 460.28 78.6028 459.012 78.8851C453.939 80.2963 449.571 82.272 445.907 84.8123C444.921 85.5179 443.864 86.4352 442.737 87.5642C441.751 88.6932 440.482 89.1871 438.932 89.046C438.651 88.7638 438.369 88.5521 438.087 88.4109C437.946 88.1287 437.735 87.7759 437.453 87.3525C437.03 86.3647 436.748 85.3768 436.607 84.3889C436.607 83.401 436.326 82.5543 435.762 81.8487C435.339 81.2842 434.353 80.8608 432.803 80.5785C431.394 80.1552 429.844 79.9435 428.153 79.9435C426.462 79.8024 424.842 79.9435 423.292 80.3669C421.882 80.6491 420.967 81.0725 420.544 81.637C419.839 82.766 419.417 84.2478 419.276 86.0824V91.1629V218.175C419.276 219.727 419.205 221.562 419.064 223.679C419.064 224.292 419.023 224.982 418.981 225.677C418.894 227.13 418.806 228.605 419.092 229.444C414.515 229.417 409.929 229.403 405.333 229.403C256.275 229.403 117.257 243.606 0 268.14ZM503.609 137.734C503.891 137.028 503.962 136.182 503.821 135.194C503.68 134.065 503.609 133.077 503.609 132.23C503.609 129.831 503.468 127.573 503.187 125.456C503.046 123.339 502.623 121.293 501.918 119.317L501.073 116.777C500.932 115.789 500.65 114.872 500.228 114.025C498.678 110.215 496.212 106.545 492.83 103.017C489.589 99.4892 486.489 97.0901 483.53 95.82C482.403 95.2555 481.205 94.8321 479.937 94.5499C478.809 94.2676 477.612 93.9148 476.344 93.4914C475.075 93.2092 473.596 93.0681 471.905 93.0681H467.255C466.973 93.3503 466.41 93.4914 465.564 93.4914C464.86 93.3503 464.225 93.3503 463.662 93.4914L459.857 94.3382C458.73 94.6204 457.603 95.0438 456.475 95.6083C451.966 97.5841 448.232 100.477 445.273 104.287C442.455 107.957 440.271 112.261 438.721 117.2C438.157 118.753 437.735 120.305 437.453 121.857C437.312 123.41 437.101 124.962 436.819 126.515C436.678 127.079 436.607 127.644 436.607 128.208C436.607 128.631 436.537 129.125 436.396 129.69V131.383C436.255 132.089 436.185 133.147 436.185 134.559C436.185 135.829 436.255 136.817 436.396 137.522V139.216C436.537 139.78 436.607 140.345 436.607 140.909C436.607 141.474 436.678 141.968 436.819 142.391C436.96 142.814 437.03 143.238 437.03 143.661C437.03 144.085 437.101 144.579 437.241 145.143C437.523 146.272 437.735 147.401 437.876 148.53L438.721 151.917C440.271 156.715 442.385 160.949 445.062 164.618C447.88 168.146 451.544 170.898 456.053 172.874C458.73 174.003 461.478 174.85 464.296 175.414C464.86 175.697 465.423 175.838 465.987 175.838C466.55 175.697 467.114 175.697 467.678 175.838H469.369C470.355 176.12 471.341 176.12 472.328 175.838H474.019C475.569 175.555 477.048 175.344 478.457 175.203C479.866 175.061 481.275 174.709 482.684 174.144C487.053 172.31 490.575 169.91 493.253 166.947C496.071 163.842 498.396 160.102 500.228 155.727C500.932 153.752 501.425 151.776 501.707 149.8C502.13 147.683 502.623 145.496 503.187 143.238C503.328 142.532 503.398 141.897 503.398 141.333C503.398 140.768 503.468 140.133 503.609 139.427V137.734ZM322.146 79.5201C318.483 78.25 313.974 77.6855 308.619 77.8266C307.774 77.8266 306.858 77.8972 305.871 78.0383H303.335C301.785 78.4617 300.305 78.8145 298.896 79.0967C297.487 79.2379 296.078 79.5907 294.669 80.1552C290.724 81.8487 287.201 83.8244 284.101 86.0824L281.565 88.1993C280.86 88.9049 280.085 89.6105 279.24 90.3161C278.958 90.5984 278.605 90.7395 278.183 90.7395C277.901 90.7395 277.619 90.8806 277.337 91.1629C276.351 91.1629 275.646 90.8806 275.224 90.3161C274.801 89.7516 274.519 89.046 274.378 88.1993C274.237 87.3525 274.096 86.4352 273.956 85.4473C273.956 84.4595 273.815 83.6127 273.533 82.9071C273.11 82.0603 272.335 81.3547 271.208 80.7902C270.081 80.3669 268.249 80.1552 265.712 80.1552C263.317 80.1552 261.556 80.3669 260.428 80.7902C259.583 81.0725 258.949 81.637 258.526 82.4837C257.962 83.3305 257.681 84.4595 257.681 85.8707V89.8928V177.462C257.209 177.028 256.638 176.768 255.967 176.684C254.839 176.402 253.642 175.979 252.373 175.414C251.246 174.991 250.33 174.285 249.626 173.297C248.921 172.168 248.498 170.687 248.358 168.852C248.217 167.017 248.146 165.112 248.146 163.136V116.354C248.146 112.261 248.005 108.38 247.723 104.711C247.583 100.9 246.878 97.584 245.61 94.7616C242.651 87.9876 237.508 83.401 230.18 81.0019C222.853 78.6028 214.258 77.4738 204.394 77.6149C204.112 77.8972 203.337 78.0383 202.069 78.0383C200.801 77.8972 199.885 77.8972 199.321 78.0383C197.771 78.3205 196.221 78.5322 194.671 78.6734C193.262 78.8145 191.853 79.0262 190.444 79.3084C184.385 81.0019 179.312 83.2599 175.226 86.0824C171.14 88.7638 167.758 92.5741 165.081 97.5135C164.376 99.0659 163.742 100.689 163.178 102.382C162.756 103.935 162.333 105.628 161.91 107.463C161.628 108.592 161.628 109.65 161.91 110.638C162.192 111.626 162.615 112.332 163.178 112.755C163.742 113.178 164.658 113.531 165.926 113.813C167.335 113.954 168.744 114.025 170.153 114.025C171.562 114.025 172.901 113.954 174.169 113.813C175.578 113.531 176.565 113.178 177.128 112.755C178.115 112.049 178.749 111.061 179.031 109.791C179.453 108.521 179.876 107.322 180.299 106.193C181.003 104.64 181.778 103.229 182.624 101.959C183.61 100.548 184.667 99.4187 185.794 98.5719C188.049 97.0196 190.374 95.82 192.769 94.9732C194.46 94.4087 196.503 93.9854 198.899 93.7031C201.294 93.4209 203.76 93.2798 206.296 93.2798C208.833 93.2798 211.228 93.4209 213.483 93.7031C215.878 93.9854 217.921 94.4793 219.612 95.1849C222.571 96.3139 224.826 97.8663 226.376 99.842C228.067 101.818 229.335 104.499 230.18 107.886C230.744 110.003 230.744 111.979 230.18 113.813C229.617 115.507 228.912 116.918 228.067 118.047C226.235 120.587 223.769 122.21 220.669 122.916C217.569 123.48 214.258 124.186 210.735 125.033C209.608 125.315 208.551 125.527 207.565 125.668C206.578 125.668 205.592 125.809 204.605 126.091C203.478 126.373 202.421 126.515 201.435 126.515C200.59 126.515 199.674 126.656 198.687 126.938C196.574 127.361 194.46 127.714 192.346 127.996C190.233 128.279 188.19 128.702 186.217 129.267C181.003 130.819 176.212 132.583 171.844 134.559C167.476 136.534 164.024 139.569 161.487 143.661C160.711 144.828 160.053 146.115 159.514 147.52C158.117 144.347 156.379 141.72 154.301 139.639C152.187 137.522 149.722 135.617 146.903 133.924C146.199 133.5 145.494 133.147 144.79 132.865L142.676 132.018C139.858 130.889 137.04 129.972 134.222 129.267C131.403 128.42 128.515 127.573 125.556 126.726C123.724 126.162 121.892 125.738 120.06 125.456C118.229 125.174 116.397 124.751 114.565 124.186C111.747 123.339 108.929 122.634 106.11 122.069C103.292 121.364 100.756 120.305 98.5014 118.894C96.6695 117.765 95.1196 116.777 93.8514 115.93C92.7241 114.942 91.7377 113.39 90.8923 111.273C90.6105 110.568 90.3287 109.721 90.0469 108.733C89.9059 107.745 89.9764 106.757 90.2582 105.769C91.1037 102.1 92.7241 99.4892 95.1196 97.9369C97.515 96.3845 100.545 95.1849 104.208 94.3382C104.913 94.1971 105.617 94.1265 106.322 94.1265L108.435 93.7031H109.704C110.549 93.4209 111.606 93.2798 112.874 93.2798C114.142 93.2798 115.199 93.4209 116.044 93.7031C116.749 93.8443 117.454 93.9148 118.158 93.9148C118.863 93.7737 119.567 93.8443 120.272 94.1265C122.385 94.691 124.358 95.2555 126.19 95.82C128.022 96.3845 129.713 97.2312 131.263 98.3602C133.517 100.195 135.278 102.241 136.547 104.499C137.251 105.628 137.744 106.828 138.026 108.098C138.449 109.227 139.224 110.144 140.351 110.85C141.056 111.273 142.324 111.626 144.156 111.908C145.988 112.049 147.467 111.979 148.594 111.697C149.299 111.555 150.003 111.555 150.708 111.697C151.412 111.838 152.117 111.767 152.822 111.485C153.103 111.203 153.456 110.991 153.878 110.85C154.301 110.568 154.653 110.285 154.935 110.003C155.217 109.439 155.428 108.662 155.569 107.674C155.71 106.545 155.64 105.487 155.358 104.499C154.794 102.523 154.231 100.759 153.667 99.207C153.103 97.5135 152.328 95.8906 151.342 94.3382C147.538 88.1287 142.183 83.8244 135.278 81.4253C128.374 78.885 119.849 77.6855 109.704 77.8266C109.422 78.1089 108.929 78.1794 108.224 78.0383C107.52 77.8972 106.956 77.8972 106.533 78.0383C105.406 78.1794 104.349 78.3206 103.363 78.4617C102.517 78.6028 101.601 78.7439 100.615 78.8851C97.7968 79.5907 95.1196 80.3669 92.5832 81.2136C90.0469 81.9192 87.7219 82.9071 85.6082 84.1772C82.7901 86.0118 80.2537 88.1287 77.9992 90.5278C75.8856 92.9269 74.1946 95.7494 72.9265 98.9953C72.6447 99.5598 72.4333 100.124 72.2924 100.689C72.2924 101.112 72.1515 101.677 71.8697 102.382C71.5878 103.935 71.3765 105.84 71.2356 108.098C71.0947 110.215 71.2356 112.12 71.6583 113.813C71.9401 114.942 72.1515 116.001 72.2924 116.989C72.5742 117.977 72.9265 118.964 73.3492 119.952C74.6174 122.916 76.3787 125.386 78.6333 127.361C80.8878 129.337 83.3537 131.101 86.031 132.654C87.1582 133.359 88.3559 133.924 89.6241 134.347C90.8923 134.77 92.2309 135.264 93.64 135.829C98.1491 137.663 102.94 139.004 108.013 139.851C113.226 140.557 118.229 141.686 123.019 143.238C123.442 143.52 123.794 143.661 124.076 143.661C124.499 143.661 124.922 143.732 125.344 143.873L129.994 145.566C131.544 146.131 132.953 146.837 134.222 147.683C136.194 148.812 137.815 150.082 139.083 151.494C140.351 152.764 141.338 154.74 142.042 157.421C142.183 157.844 142.324 158.479 142.465 159.326C142.606 160.173 142.535 160.949 142.253 161.655C141.267 166.029 139.576 169.134 137.181 170.969C134.785 172.803 131.544 174.285 127.458 175.414C126.754 175.555 125.979 175.697 125.133 175.838C124.288 175.838 123.442 175.908 122.597 176.049C122.033 176.19 121.258 176.261 120.272 176.261C119.144 176.543 117.735 176.684 116.044 176.684C114.494 176.684 113.226 176.543 112.24 176.261H110.972L106.533 175.626C104.138 174.92 101.883 174.215 99.7695 173.509C97.6559 172.803 95.7536 171.816 94.0627 170.545C91.6673 168.852 89.765 166.453 88.3559 163.348C87.7923 162.219 87.2991 161.02 86.8764 159.749C86.5946 158.338 85.9605 157.28 84.9741 156.574C84.5514 156.292 83.706 156.08 82.4378 155.939C81.3105 155.657 80.1128 155.445 78.8446 155.304C77.5765 155.163 76.3083 155.163 75.0401 155.304C73.7719 155.304 72.7856 155.445 72.081 155.727C71.0947 156.292 70.3901 156.856 69.9674 157.421C69.6856 158.127 69.4742 159.114 69.3333 160.384C69.3333 161.513 69.4742 162.501 69.756 163.348C70.4606 165.747 71.2356 167.935 72.081 169.91C72.9265 171.886 73.9833 173.791 75.2515 175.626C77.6469 179.013 80.4651 181.765 83.706 183.882C86.9469 185.999 90.7514 187.763 95.1196 189.174C96.2468 189.597 97.3036 189.88 98.29 190.021L101.672 190.867C102.799 190.867 103.715 190.938 104.42 191.079C105.124 191.361 105.97 191.432 106.956 191.291C107.942 191.291 108.858 191.432 109.704 191.714H112.029C112.733 191.855 113.719 191.926 114.988 191.926C116.256 191.926 117.242 191.855 117.947 191.714H120.06C121.469 191.432 122.879 191.291 124.288 191.291C125.697 191.291 127.106 191.15 128.515 190.867C129.783 190.444 131.051 190.091 132.319 189.809C133.728 189.668 135.067 189.386 136.335 188.962C140.703 187.41 144.649 185.575 148.172 183.458C151.694 181.2 154.583 178.237 156.837 174.568C157.419 173.635 157.953 172.606 158.439 171.482C158.596 171.959 158.767 172.423 158.951 172.874C160.642 177.108 162.756 180.424 165.292 182.823C167.969 185.081 171.421 187.128 175.649 188.962C176.635 189.386 177.692 189.668 178.819 189.809L182.201 190.656C182.624 190.797 182.976 190.797 183.258 190.656C183.681 190.656 184.174 190.726 184.737 190.867C185.301 191.15 185.935 191.291 186.64 191.291C187.344 191.291 188.049 191.361 188.753 191.502H190.656C192.065 191.785 193.544 191.785 195.094 191.502H196.574C197.137 191.502 197.771 191.432 198.476 191.291C200.026 191.009 201.576 190.797 203.126 190.656C204.817 190.515 206.367 190.232 207.776 189.809C210.171 189.103 212.426 188.327 214.539 187.48C216.653 186.493 218.626 185.434 220.458 184.305C221.726 183.458 222.994 182.471 224.262 181.342C225.671 180.213 227.151 179.436 228.701 179.013C229.264 178.872 229.687 178.942 229.969 179.225C230.392 179.507 230.744 179.789 231.026 180.071C231.871 180.918 232.576 182.047 233.139 183.458C233.703 184.728 234.337 185.857 235.042 186.845C236.169 188.398 238.212 189.668 241.171 190.656C244.271 191.785 247.371 191.996 250.471 191.291C251.317 191.009 252.092 190.867 252.796 190.867C253.642 190.867 254.417 190.726 255.121 190.444C256.53 189.738 257.657 188.68 258.503 187.269L258.532 187.214C258.597 187.305 258.665 187.394 258.737 187.48C259.301 188.186 259.935 188.609 260.64 188.751C261.485 188.892 262.331 189.103 263.176 189.386H266.346C267.896 189.386 269.376 189.315 270.785 189.174C272.194 189.033 273.251 188.468 273.956 187.48C274.801 186.351 275.224 184.799 275.224 182.823V177.108V129.902C275.224 127.644 275.153 125.386 275.012 123.128C275.012 120.729 275.294 118.612 275.858 116.777C278.253 108.027 283.044 101.465 290.23 97.0901C292.062 95.9611 294.105 95.0438 296.36 94.3382C298.755 93.6326 301.503 93.2798 304.603 93.2798H306.505C307.21 93.2798 307.844 93.3503 308.408 93.4914C311.789 94.1971 314.467 95.1849 316.439 96.4551C318.412 97.5841 320.173 99.4187 321.723 101.959C323.414 104.781 324.401 108.168 324.683 112.12C324.964 115.93 325.105 120.093 325.105 124.609V179.648C325.105 181.624 325.176 183.458 325.317 185.152C325.598 186.704 326.373 187.833 327.642 188.539C328.769 189.103 330.53 189.386 332.926 189.386C334.758 189.386 336.519 189.315 338.21 189.174C339.901 189.033 341.098 188.398 341.803 187.269C342.507 186.281 342.86 184.94 342.86 183.247V177.954V129.69V120.164C343.001 117.059 343.423 114.307 344.128 111.908C346.664 104.146 351.596 98.713 358.923 95.6083C360.755 94.9027 362.657 94.3382 364.63 93.9148C365.335 93.6326 366.039 93.562 366.744 93.7031C367.448 93.7031 368.153 93.6326 368.857 93.4914C369.28 93.3503 370.126 93.2798 371.394 93.2798C372.662 93.1386 373.578 93.1386 374.141 93.2798C375.128 93.562 376.044 93.7737 376.889 93.9148C377.876 93.9148 378.791 94.0559 379.637 94.3382C384.005 95.8906 387.246 98.3602 389.36 101.747C391.191 104.57 392.178 108.098 392.319 112.332C392.6 116.424 392.741 120.799 392.741 125.456V175.414C392.741 176.261 392.671 177.178 392.53 178.166C392.53 179.013 392.6 179.789 392.741 180.495C393.023 181.342 393.094 182.259 392.953 183.247C392.812 184.093 392.882 184.94 393.164 185.787C393.446 187.057 394.01 187.904 394.855 188.327C395.419 188.751 396.335 189.033 397.603 189.174C399.012 189.315 400.421 189.386 401.83 189.386C403.239 189.386 404.578 189.315 405.846 189.174C407.114 188.892 408.03 188.539 408.594 188.115C409.862 187.128 410.425 185.081 410.284 181.977V173.932V111.908V109.791C410.425 109.086 410.425 108.451 410.284 107.886V105.981C410.144 105.558 410.073 105.134 410.073 104.711C410.214 104.146 410.144 103.652 409.862 103.229C409.58 101.677 409.298 100.265 409.016 98.9953C408.734 97.584 408.312 96.3139 407.748 95.1849C405.071 88.6932 400.21 83.895 393.164 80.7902C392.46 80.508 391.755 80.3669 391.05 80.3669C390.487 80.2257 389.853 80.014 389.148 79.7318C388.021 79.3084 386.823 79.0262 385.555 78.8851C384.428 78.6028 383.23 78.3205 381.962 78.0383C380.553 78.0383 379.496 77.9677 378.791 77.8266C378.228 77.6855 377.312 77.6149 376.044 77.6149C374.776 77.4738 373.789 77.5444 373.085 77.8266H370.971C370.407 77.8266 369.773 77.8972 369.069 78.0383C367.801 78.3205 366.462 78.6028 365.053 78.8851C363.785 79.0262 362.587 79.3084 361.46 79.7318C358.923 80.5785 356.598 81.637 354.485 82.9071C352.371 84.0361 350.328 85.3768 348.355 86.9292C347.228 87.6348 346.101 88.6932 344.973 90.1044C343.987 91.3746 342.789 92.2213 341.38 92.6447C340.535 92.7858 339.83 92.6447 339.267 92.2213C338.703 91.7979 338.28 91.4451 337.998 91.1629C337.012 90.175 336.096 89.1166 335.251 87.9876C334.546 86.7175 333.63 85.7296 332.503 85.024C329.403 82.6248 325.951 80.7902 322.146 79.5201ZM230.18 151.282C230.321 148.601 230.392 145.849 230.392 143.026C230.392 141.474 230.321 140.063 230.18 138.792C230.039 137.522 229.476 136.534 228.489 135.829C228.067 135.547 227.08 135.405 225.53 135.405C225.249 135.688 224.755 135.829 224.051 135.829C223.346 135.829 222.712 135.97 222.149 136.252C221.021 136.534 219.753 136.817 218.344 137.099L214.117 137.946C213.694 137.946 213.201 138.016 212.637 138.157H211.158C209.044 138.722 206.719 139.075 204.183 139.216C201.787 139.216 199.533 139.498 197.419 140.063C196.292 140.345 195.235 140.627 194.249 140.909C193.403 141.05 192.417 141.262 191.29 141.544C189.035 142.25 186.921 143.167 184.949 144.296C182.976 145.284 181.285 146.554 179.876 148.107C178.467 149.659 177.41 151.564 176.706 153.822C176.001 155.939 175.719 158.55 175.86 161.655C175.86 163.066 176.071 164.407 176.494 165.677C177.058 166.806 177.692 167.864 178.396 168.852C179.524 170.404 181.003 171.745 182.835 172.874C184.667 173.862 186.64 174.709 188.753 175.414C189.458 175.555 190.162 175.626 190.867 175.626C191.571 175.626 192.276 175.697 192.98 175.838C193.967 176.12 195.165 176.332 196.574 176.473C198.124 176.473 199.392 176.332 200.378 176.049C201.224 175.767 202.069 175.697 202.915 175.838C203.76 175.838 204.605 175.697 205.451 175.414C206.578 175.132 207.635 174.92 208.621 174.779C209.749 174.638 210.805 174.356 211.792 173.932C215.878 172.239 219.33 170.193 222.149 167.794C225.108 165.394 227.362 162.149 228.912 158.056C229.758 156.08 230.18 153.822 230.18 151.282ZM647.009 130.537C647.291 131.948 647.291 133.571 647.009 135.405C646.868 137.099 646.445 138.299 645.741 139.004C645.036 139.569 643.979 139.992 642.57 140.274C641.302 140.415 639.823 140.486 638.132 140.486H633.059C631.368 140.345 629.889 140.274 628.62 140.274H574.512C573.384 140.274 572.257 140.345 571.13 140.486C570.003 140.486 569.087 140.698 568.382 141.121C567.818 141.403 567.255 141.968 566.691 142.814C566.409 143.238 566.128 143.873 565.846 144.72C565.564 145.425 565.564 146.131 565.846 146.837C565.987 147.542 566.057 148.177 566.057 148.742C566.057 149.306 566.128 149.871 566.268 150.435C566.55 151.564 566.832 152.764 567.114 154.034C567.396 155.163 567.818 156.292 568.382 157.421C571.623 165.042 576.978 170.475 584.446 173.721C585.291 174.144 586.207 174.497 587.193 174.779L590.152 175.626C590.575 175.767 591.28 175.838 592.266 175.838C594.239 176.402 596.846 176.684 600.086 176.684C603.327 176.684 605.934 176.402 607.907 175.838C609.88 175.273 611.641 174.709 613.191 174.144C614.882 173.439 616.432 172.592 617.841 171.604C619.391 170.616 620.73 169.487 621.857 168.217C622.984 166.806 623.97 165.324 624.816 163.771C625.661 162.36 626.366 160.878 626.93 159.326C627.634 157.774 628.761 156.645 630.311 155.939C630.875 155.657 631.791 155.445 633.059 155.304C634.327 155.163 635.595 155.163 636.864 155.304C638.132 155.304 639.33 155.375 640.457 155.516C641.319 155.624 641.975 155.814 642.425 156.087C642.61 155.967 642.807 155.847 643.016 155.727C643.721 155.445 644.707 155.304 645.975 155.304C647.244 155.163 648.512 155.163 649.78 155.304C651.048 155.445 652.246 155.657 653.373 155.939C654.641 156.08 655.487 156.292 655.909 156.574C656.896 157.28 657.53 158.338 657.812 159.749C658.234 161.02 658.728 162.219 659.291 163.348C660.7 166.453 662.603 168.852 664.998 170.545C666.689 171.816 668.591 172.803 670.705 173.509C672.818 174.215 675.073 174.92 677.468 175.626L681.907 176.261H683.175C684.161 176.543 685.43 176.684 686.98 176.684C688.671 176.684 690.08 176.543 691.207 176.261C692.193 176.261 692.968 176.19 693.532 176.049C694.377 175.908 695.223 175.838 696.068 175.838C696.914 175.697 697.689 175.555 698.393 175.414C702.48 174.285 705.721 172.803 708.116 170.969C710.511 169.134 712.202 166.029 713.189 161.655C713.47 160.949 713.541 160.173 713.4 159.326C713.259 158.479 713.118 157.844 712.977 157.421C712.273 154.74 711.286 152.764 710.018 151.494C708.75 150.082 707.13 148.812 705.157 147.683C703.889 146.837 702.48 146.131 700.93 145.566L696.28 143.873C695.857 143.732 695.434 143.661 695.011 143.661C694.73 143.661 694.377 143.52 693.955 143.238C689.164 141.686 684.161 140.557 678.948 139.851C673.875 139.004 669.084 137.663 664.575 135.829C663.166 135.264 661.828 134.77 660.559 134.347C659.291 133.924 658.093 133.359 656.966 132.654C654.289 131.101 651.823 129.337 649.568 127.361C648.185 126.149 646.988 124.751 645.976 123.168C646.105 123.648 646.238 124.129 646.375 124.609C646.516 125.597 646.586 126.585 646.586 127.573L647.009 130.537ZM642.12 109.355C641.909 108.724 641.707 108.094 641.514 107.463C640.95 105.628 640.175 103.935 639.189 102.382C637.639 99.7009 635.736 96.8784 633.482 93.9148C632.636 92.7858 631.58 91.6568 630.311 90.5278C629.184 89.3988 628.057 88.411 626.93 87.5642C626.366 87.282 625.873 86.9291 625.45 86.5058C625.027 85.9413 624.464 85.5179 623.759 85.2356C620.236 82.9777 616.291 81.2136 611.923 79.9435C607.555 78.5322 602.411 77.8972 596.493 78.0383C596.212 78.3205 595.859 78.3911 595.437 78.25C595.014 78.1089 594.661 78.1089 594.38 78.25C593.675 78.25 593.041 78.3206 592.477 78.4617C591.914 78.4617 591.28 78.5322 590.575 78.6734C588.602 79.0967 586.7 79.5201 584.868 79.9435C583.177 80.2257 581.487 80.7197 579.796 81.4253C574.018 83.8244 569.157 86.8586 565.212 90.5278C561.266 94.0559 557.744 98.2897 554.644 103.229C553.798 104.781 553.023 106.404 552.319 108.098C551.755 109.65 551.121 111.203 550.416 112.755C549.571 114.731 548.937 116.848 548.514 119.106C548.232 121.364 547.809 123.622 547.246 125.88C547.105 126.585 547.034 127.361 547.034 128.208C547.175 128.914 547.105 129.619 546.823 130.325V132.654C546.682 133.359 546.612 134.276 546.612 135.405C546.753 136.393 546.894 137.17 547.034 137.734V140.698C547.316 141.968 547.528 143.238 547.669 144.508C547.809 145.778 548.021 146.978 548.303 148.107C548.444 148.812 548.514 149.377 548.514 149.8C548.514 150.224 548.584 150.717 548.725 151.282C549.289 152.975 549.712 154.669 549.994 156.362C550.416 158.056 550.98 159.679 551.684 161.231C553.657 166.029 556.053 170.404 558.871 174.356C561.83 178.166 565.353 181.412 569.439 184.093C571.834 185.505 574.089 186.704 576.203 187.692C576.766 187.974 577.259 188.186 577.682 188.327C578.105 188.327 578.598 188.468 579.162 188.751C580.289 189.174 581.487 189.527 582.755 189.809C584.023 190.232 585.291 190.585 586.559 190.867C587.264 191.009 588.039 191.079 588.884 191.079C589.73 191.22 590.505 191.361 591.209 191.502C591.773 191.644 592.337 191.714 592.9 191.714C593.464 191.714 594.098 191.785 594.802 191.926H596.705C597.268 192.067 597.973 192.138 598.818 192.138C599.805 192.138 600.65 192.067 601.355 191.926H603.468C604.173 191.785 604.807 191.714 605.371 191.714C606.075 191.714 606.78 191.644 607.484 191.502C609.034 191.22 610.514 190.938 611.923 190.656C613.332 190.515 614.741 190.162 616.15 189.597C621.645 187.763 626.155 185.434 629.677 182.612C633.341 179.648 636.582 175.908 639.4 171.392C640.284 169.962 641.086 168.432 641.807 166.804C642.192 167.892 642.596 168.927 643.016 169.91C643.862 171.886 644.919 173.791 646.187 175.626C648.582 179.013 651.4 181.765 654.641 183.882C657.882 185.999 661.687 187.763 666.055 189.174C667.182 189.597 668.239 189.88 669.225 190.021L672.607 190.867C673.734 190.867 674.65 190.938 675.355 191.079C676.059 191.361 676.905 191.432 677.891 191.291C678.877 191.291 679.793 191.432 680.639 191.714H682.964C683.668 191.855 684.655 191.926 685.923 191.926C687.191 191.926 688.177 191.855 688.882 191.714H690.996C692.405 191.432 693.814 191.291 695.223 191.291C696.632 191.291 698.041 191.15 699.45 190.867C700.718 190.444 701.986 190.091 703.255 189.809C704.664 189.668 706.002 189.386 707.271 188.962C711.639 187.41 715.584 185.575 719.107 183.458C722.63 181.2 725.518 178.237 727.773 174.568C728.477 173.439 729.111 172.168 729.675 170.757C730.239 169.346 730.732 167.864 731.155 166.312C731.436 165.324 731.577 164.336 731.577 163.348C731.577 162.36 731.718 161.372 732 160.384V158.268C732 156.998 731.93 155.869 731.789 154.881C731.789 153.752 731.648 152.693 731.366 151.705C731.084 150.012 730.802 148.671 730.52 147.683C729.111 144.437 727.35 141.756 725.236 139.639C723.123 137.522 720.657 135.617 717.839 133.924C717.134 133.5 716.43 133.147 715.725 132.865L713.611 132.018C710.793 130.889 707.975 129.972 705.157 129.267C702.339 128.42 699.45 127.573 696.491 126.726C694.659 126.162 692.827 125.738 690.996 125.456C689.164 125.174 687.332 124.751 685.5 124.186C682.682 123.339 679.864 122.634 677.046 122.069C674.227 121.364 671.691 120.305 669.437 118.894C667.605 117.765 666.055 116.777 664.787 115.93C663.659 114.942 662.673 113.39 661.828 111.273C661.546 110.568 661.264 109.721 660.982 108.733C660.841 107.745 660.912 106.757 661.193 105.769C662.039 102.1 663.659 99.4892 666.055 97.9369C668.45 96.3845 671.48 95.1849 675.143 94.3382C675.848 94.1971 676.552 94.1265 677.257 94.1265L679.371 93.7031H680.639C681.484 93.4209 682.541 93.2798 683.809 93.2798C685.077 93.2798 686.134 93.4209 686.98 93.7031C687.684 93.8443 688.389 93.9148 689.093 93.9148C689.798 93.7737 690.502 93.8443 691.207 94.1265C693.321 94.691 695.293 95.2555 697.125 95.82C698.957 96.3845 700.648 97.2312 702.198 98.3602C704.452 100.195 706.214 102.241 707.482 104.499C708.186 105.628 708.68 106.828 708.961 108.098C709.384 109.227 710.159 110.144 711.286 110.85C711.991 111.273 713.259 111.626 715.091 111.908C716.923 112.049 718.402 111.979 719.53 111.697C720.234 111.555 720.939 111.555 721.643 111.697C722.348 111.838 723.052 111.767 723.757 111.485C724.039 111.203 724.391 110.991 724.814 110.85C725.236 110.568 725.589 110.285 725.87 110.003C726.152 109.439 726.364 108.662 726.505 107.674C726.645 106.545 726.575 105.487 726.293 104.499C725.73 102.523 725.166 100.759 724.602 99.207C724.039 97.5135 723.264 95.8906 722.277 94.3382C718.473 88.1287 713.118 83.8244 706.214 81.4253C699.309 78.885 690.784 77.6855 680.639 77.8266C680.357 78.1089 679.864 78.1794 679.159 78.0383C678.455 77.8972 677.891 77.8972 677.468 78.0383C676.341 78.1794 675.284 78.3206 674.298 78.4617C673.453 78.6028 672.537 78.7439 671.55 78.8851C668.732 79.5907 666.055 80.3669 663.518 81.2136C660.982 81.9192 658.657 82.9071 656.543 84.1772C653.725 86.0118 651.189 88.1287 648.934 90.5278C646.821 92.9269 645.13 95.7494 643.862 98.9953C643.58 99.5598 643.369 100.124 643.228 100.689C643.228 101.112 643.087 101.677 642.805 102.382C642.523 103.935 642.312 105.84 642.171 108.098C642.142 108.526 642.125 108.945 642.12 109.355ZM626.507 123.339C626.93 122.775 627.282 122.069 627.564 121.222C627.846 120.235 627.846 119.247 627.564 118.259C626.718 115.154 625.52 112.261 623.97 109.58C621.998 106.334 619.814 103.582 617.418 101.324C615.023 99.0659 611.923 97.1607 608.118 95.6083C607.132 95.3261 606.146 95.1144 605.159 94.9732C604.173 94.691 603.116 94.4087 601.989 94.1265C600.862 93.8443 599.664 93.7031 598.396 93.7031H594.802C594.38 93.9854 593.887 94.1265 593.323 94.1265C592.759 93.9854 592.266 93.9854 591.843 94.1265L588.462 94.9732C587.475 95.1144 586.489 95.3261 585.503 95.6083C581.416 97.3018 578.105 99.4187 575.568 101.959C573.173 104.499 570.989 107.674 569.016 111.485C568.593 112.19 568.171 113.108 567.748 114.237C567.325 115.225 566.973 116.354 566.691 117.624C566.409 118.894 566.339 120.093 566.48 121.222C566.621 122.351 567.114 123.198 567.959 123.763C569.087 124.609 570.989 125.033 573.666 125.033C576.484 124.892 578.88 124.821 580.853 124.821H612.98C615.093 124.821 617.63 124.892 620.589 125.033C623.548 125.033 625.521 124.468 626.507 123.339Z" fill="#ECE6CE" fill-opacity="0.92"/>
</svg>
